<?xml version="1.0" encoding="UTF-8"?>
<!--Generator: Apple Native CoreSVG 149-->
<!DOCTYPE svg
PUBLIC "-//W3C//DTD SVG 1.1//EN"
       "http://www.w3.org/Graphics/SVG/1.1/DTD/svg11.dtd">
<svg version="1.1" xmlns="http://www.w3.org/2000/svg" xmlns:xlink="http://www.w3.org/1999/xlink" width="3300" height="2200">
 <!--glyph: "uni1002D9.medium", point size: 100.000000, font version: "Version 16.0d18e1", template writer version: "8"-->
 <g id="Notes">
  <rect height="2200" id="artboard" style="fill:white;opacity:1" width="3300" x="0" y="0"/>
  <line id="" style="fill:none;stroke:black;opacity:1;stroke-width:0.5;" x1="263" x2="3036" y1="292" y2="292"/>
  <text style="stroke:none;fill:black;font-family:-apple-system,&quot;SF Pro Display&quot;,&quot;SF Pro Text&quot;,Helvetica,sans-serif;font-weight:bold;" transform="matrix(1 0 0 1 263 322)">Weight/Scale Variations</text>
  <text style="stroke:none;fill:black;font-family:-apple-system,&quot;SF Pro Display&quot;,&quot;SF Pro Text&quot;,Helvetica,sans-serif;text-anchor:middle;" transform="matrix(1 0 0 1 559.711 322)">Ultralight</text>
  <text style="stroke:none;fill:black;font-family:-apple-system,&quot;SF Pro Display&quot;,&quot;SF Pro Text&quot;,Helvetica,sans-serif;text-anchor:middle;" transform="matrix(1 0 0 1 856.422 322)">Thin</text>
  <text style="stroke:none;fill:black;font-family:-apple-system,&quot;SF Pro Display&quot;,&quot;SF Pro Text&quot;,Helvetica,sans-serif;text-anchor:middle;" transform="matrix(1 0 0 1 1153.13 322)">Light</text>
  <text style="stroke:none;fill:black;font-family:-apple-system,&quot;SF Pro Display&quot;,&quot;SF Pro Text&quot;,Helvetica,sans-serif;text-anchor:middle;" transform="matrix(1 0 0 1 1449.84 322)">Regular</text>
  <text style="stroke:none;fill:black;font-family:-apple-system,&quot;SF Pro Display&quot;,&quot;SF Pro Text&quot;,Helvetica,sans-serif;text-anchor:middle;" transform="matrix(1 0 0 1 1746.56 322)">Medium</text>
  <text style="stroke:none;fill:black;font-family:-apple-system,&quot;SF Pro Display&quot;,&quot;SF Pro Text&quot;,Helvetica,sans-serif;text-anchor:middle;" transform="matrix(1 0 0 1 2043.27 322)">Semibold</text>
  <text style="stroke:none;fill:black;font-family:-apple-system,&quot;SF Pro Display&quot;,&quot;SF Pro Text&quot;,Helvetica,sans-serif;text-anchor:middle;" transform="matrix(1 0 0 1 2339.98 322)">Bold</text>
  <text style="stroke:none;fill:black;font-family:-apple-system,&quot;SF Pro Display&quot;,&quot;SF Pro Text&quot;,Helvetica,sans-serif;text-anchor:middle;" transform="matrix(1 0 0 1 2636.69 322)">Heavy</text>
  <text style="stroke:none;fill:black;font-family:-apple-system,&quot;SF Pro Display&quot;,&quot;SF Pro Text&quot;,Helvetica,sans-serif;text-anchor:middle;" transform="matrix(1 0 0 1 2933.4 322)">Black</text>
  <line id="" style="fill:none;stroke:black;opacity:1;stroke-width:0.5;" x1="263" x2="3036" y1="1903" y2="1903"/>
  <g id="" transform="matrix(1 0 0 1 263 1933)">
   <path d="M9.24805 0.830078C13.5547 0.830078 17.1387-2.74414 17.1387-7.05078C17.1387-11.3574 13.5449-14.9316 9.23828-14.9316C4.94141-14.9316 1.36719-11.3574 1.36719-7.05078C1.36719-2.74414 4.95117 0.830078 9.24805 0.830078ZM9.24805-0.654297C5.70312-0.654297 2.87109-3.49609 2.87109-7.05078C2.87109-10.6055 5.69336-13.4473 9.23828-13.4473C12.793-13.4473 15.6348-10.6055 15.6445-7.05078C15.6543-3.49609 12.8027-0.654297 9.24805-0.654297ZM6.39648-6.31836L8.50586-6.31836L8.50586-4.19922C8.50586-3.75977 8.79883-3.45703 9.22852-3.45703C9.67773-3.45703 9.9707-3.75977 9.9707-4.19922L9.9707-6.31836L12.0996-6.31836C12.5391-6.31836 12.8418-6.61133 12.8418-7.04102C12.8418-7.48047 12.5391-7.7832 12.0996-7.7832L9.9707-7.7832L9.9707-9.89258C9.9707-10.3418 9.67773-10.6445 9.22852-10.6445C8.79883-10.6445 8.50586-10.3418 8.50586-9.89258L8.50586-7.7832L6.39648-7.7832C5.94727-7.7832 5.64453-7.48047 5.64453-7.04102C5.64453-6.61133 5.94727-6.31836 6.39648-6.31836Z"/>
  </g>
  <g id="" transform="matrix(1 0 0 1 281.506 1933)">
   <path d="M11.709 2.91016C17.1582 2.91016 21.6699-1.61133 21.6699-7.05078C21.6699-12.5 17.1484-17.0117 11.6992-17.0117C6.25977-17.0117 1.74805-12.5 1.74805-7.05078C1.74805-1.61133 6.26953 2.91016 11.709 2.91016ZM11.709 1.25C7.09961 1.25 3.41797-2.44141 3.41797-7.05078C3.41797-11.6602 7.08984-15.3516 11.6992-15.3516C16.3086-15.3516 20-11.6602 20.0098-7.05078C20.0195-2.44141 16.3184 1.25 11.709 1.25ZM7.98828-6.23047L10.8789-6.23047L10.8789-3.32031C10.8789-2.83203 11.2109-2.5 11.6895-2.5C12.1777-2.5 12.5195-2.83203 12.5195-3.32031L12.5195-6.23047L15.4297-6.23047C15.918-6.23047 16.25-6.5625 16.25-7.04102C16.25-7.5293 15.918-7.87109 15.4297-7.87109L12.5195-7.87109L12.5195-10.7617C12.5195-11.2695 12.1777-11.6016 11.6895-11.6016C11.2109-11.6016 10.8789-11.2598 10.8789-10.7617L10.8789-7.87109L7.98828-7.87109C7.48047-7.87109 7.14844-7.5293 7.14844-7.04102C7.14844-6.5625 7.49023-6.23047 7.98828-6.23047Z"/>
  </g>
  <g id="" transform="matrix(1 0 0 1 304.924 1933)">
   <path d="M14.9707 5.66406C21.9336 5.66406 27.6953-0.0976562 27.6953-7.05078C27.6953-14.0137 21.9238-19.7754 14.9609-19.7754C8.00781-19.7754 2.25586-14.0137 2.25586-7.05078C2.25586-0.0976562 8.01758 5.66406 14.9707 5.66406ZM14.9707 3.84766C8.93555 3.84766 4.08203-1.01562 4.08203-7.05078C4.08203-13.0957 8.92578-17.9492 14.9609-17.9492C21.0059-17.9492 25.8594-13.0957 25.8691-7.05078C25.8789-1.01562 21.0156 3.84766 14.9707 3.84766ZM10.0586-6.14258L14.0625-6.14258L14.0625-2.12891C14.0625-1.5918 14.4336-1.2207 14.9512-1.2207C15.4883-1.2207 15.8594-1.5918 15.8594-2.12891L15.8594-6.14258L19.8828-6.14258C20.4102-6.14258 20.791-6.51367 20.791-7.03125C20.791-7.56836 20.4199-7.94922 19.8828-7.94922L15.8594-7.94922L15.8594-11.9531C15.8594-12.5098 15.4883-12.8809 14.9512-12.8809C14.4336-12.8809 14.0625-12.5 14.0625-11.9531L14.0625-7.94922L10.0586-7.94922C9.50195-7.94922 9.13086-7.56836 9.13086-7.03125C9.13086-6.51367 9.51172-6.14258 10.0586-6.14258Z"/>
  </g>
  <text style="stroke:none;fill:black;font-family:-apple-system,&quot;SF Pro Display&quot;,&quot;SF Pro Text&quot;,Helvetica,sans-serif;font-weight:bold;" transform="matrix(1 0 0 1 263 1953)">Design Variations</text>
  <text style="stroke:none;fill:black;font-family:-apple-system,&quot;SF Pro Display&quot;,&quot;SF Pro Text&quot;,Helvetica,sans-serif;" transform="matrix(1 0 0 1 263 1971)">Symbols are supported in up to nine weights and three scales.</text>
  <text style="stroke:none;fill:black;font-family:-apple-system,&quot;SF Pro Display&quot;,&quot;SF Pro Text&quot;,Helvetica,sans-serif;" transform="matrix(1 0 0 1 263 1989)">For optimal layout with text and other symbols, vertically align</text>
  <text style="stroke:none;fill:black;font-family:-apple-system,&quot;SF Pro Display&quot;,&quot;SF Pro Text&quot;,Helvetica,sans-serif;" transform="matrix(1 0 0 1 263 2007)">symbols with the adjacent text.</text>
  <line id="" style="fill:none;stroke:#00AEEF;stroke-width:0.5;opacity:1.0;" x1="776" x2="776" y1="1919" y2="1933"/>
  <g id="" transform="matrix(1 0 0 1 776 1933)">
   <path d="M3.31055 0.126953C3.82812 0.126953 4.08203-0.0683594 4.26758-0.605469L5.52734-4.0625L11.2891-4.0625L12.5488-0.605469C12.7344-0.0683594 12.9883 0.126953 13.4961 0.126953C14.0137 0.126953 14.3457-0.185547 14.3457-0.673828C14.3457-0.839844 14.3164-0.986328 14.2383-1.20117L9.6582-13.3887C9.43359-13.9941 9.0332-14.2871 8.4082-14.2871C7.80273-14.2871 7.39258-13.9941 7.17773-13.3984L2.59766-1.19141C2.51953-0.976562 2.49023-0.830078 2.49023-0.664062C2.49023-0.175781 2.80273 0.126953 3.31055 0.126953ZM6.00586-5.53711L8.37891-12.1094L8.42773-12.1094L10.8008-5.53711Z"/>
  </g>
  <line id="" style="fill:none;stroke:#00AEEF;stroke-width:0.5;opacity:1.0;" x1="792.836" x2="792.836" y1="1919" y2="1933"/>
  <text style="stroke:none;fill:black;font-family:-apple-system,&quot;SF Pro Display&quot;,&quot;SF Pro Text&quot;,Helvetica,sans-serif;font-weight:bold;" transform="matrix(1 0 0 1 776 1953)">Margins</text>
  <text style="stroke:none;fill:black;font-family:-apple-system,&quot;SF Pro Display&quot;,&quot;SF Pro Text&quot;,Helvetica,sans-serif;" transform="matrix(1 0 0 1 776 1971)">Leading and trailing margins on the left and right side of each symbol</text>
  <text style="stroke:none;fill:black;font-family:-apple-system,&quot;SF Pro Display&quot;,&quot;SF Pro Text&quot;,Helvetica,sans-serif;" transform="matrix(1 0 0 1 776 1989)">can be adjusted by modifying the x-location of the margin guidelines.</text>
  <text style="stroke:none;fill:black;font-family:-apple-system,&quot;SF Pro Display&quot;,&quot;SF Pro Text&quot;,Helvetica,sans-serif;" transform="matrix(1 0 0 1 776 2007)">Modifications are automatically applied proportionally to all</text>
  <text style="stroke:none;fill:black;font-family:-apple-system,&quot;SF Pro Display&quot;,&quot;SF Pro Text&quot;,Helvetica,sans-serif;" transform="matrix(1 0 0 1 776 2025)">scales and weights.</text>
  <g id="" transform="matrix(1 0 0 1 1289 1933)">
   <path d="M2.8418 1.86523L4.54102 3.57422C5.40039 4.44336 6.38672 4.38477 7.31445 3.35938L17.4902-7.85156C17.7539-7.76367 18.0273-7.7832 18.3398-7.8418L19.4043-8.03711L20.0684-7.36328L20.0293-6.80664C19.9902-6.30859 20.1172-5.92773 20.6055-5.44922L21.3672-4.70703C21.8457-4.22852 22.4609-4.19922 22.9297-4.66797L25.8398-7.58789C26.3086-8.05664 26.2891-8.65234 25.8105-9.13086L25.0391-9.89258C24.5605-10.3711 24.1895-10.5273 23.7109-10.4883L23.1348-10.4395L22.4902-11.0742L22.7344-12.1973C22.8613-12.7637 22.7051-13.2031 22.1191-13.7891L19.9219-15.9766C16.582-19.2969 12.1484-19.2188 9.25781-16.3281C8.83789-15.918 8.80859-15.3418 9.04297-14.9512C9.27734-14.5898 9.73633-14.3555 10.3809-14.5215C11.8457-14.8633 13.3691-14.9219 14.7949-13.9844L14.209-12.5293C14.0137-12.0508 13.9844-11.6504 14.1113-11.2891L3.04688-0.898438C2.06055 0.0195312 1.98242 0.996094 2.8418 1.86523ZM10.752-15.957C13.1836-17.7344 16.4746-17.4316 18.7012-15.2051L21.1328-12.793C21.3672-12.5586 21.4062-12.373 21.3379-12.0312L21.0156-10.5469L22.5195-9.0625L23.5059-9.12109C23.7598-9.13086 23.8379-9.11133 24.0332-8.91602L24.6094-8.33984L22.168-5.89844L21.5918-6.47461C21.3965-6.66992 21.3672-6.74805 21.377-7.01172L21.4453-7.98828L19.9512-9.47266L18.4277-9.21875C18.1055-9.15039 17.959-9.17969 17.7148-9.41406L15.7129-11.416C15.459-11.6504 15.4297-11.8164 15.5859-12.1875L16.4648-14.2773C14.9023-15.7324 12.8711-16.3574 10.8398-15.7617C10.6836-15.7227 10.625-15.8496 10.752-15.957ZM5.27344 2.30469L4.10156 1.14258C3.63281 0.683594 3.74023 0.341797 4.14062-0.0195312L14.9512-10.1953L16.416-8.71094L6.42578 2.27539C6.07422 2.67578 5.74219 2.77344 5.27344 2.30469Z"/>
  </g>
  <text style="stroke:none;fill:black;font-family:-apple-system,&quot;SF Pro Display&quot;,&quot;SF Pro Text&quot;,Helvetica,sans-serif;font-weight:bold;" transform="matrix(1 0 0 1 1289 1953)">Exporting</text>
  <text style="stroke:none;fill:black;font-family:-apple-system,&quot;SF Pro Display&quot;,&quot;SF Pro Text&quot;,Helvetica,sans-serif;" transform="matrix(1 0 0 1 1289 1971)">Symbols should be outlined when exporting to ensure the</text>
  <text style="stroke:none;fill:black;font-family:-apple-system,&quot;SF Pro Display&quot;,&quot;SF Pro Text&quot;,Helvetica,sans-serif;" transform="matrix(1 0 0 1 1289 1989)">design is preserved when submitting to Xcode.</text>
  <text id="template-version" style="stroke:none;fill:black;font-family:-apple-system,&quot;SF Pro Display&quot;,&quot;SF Pro Text&quot;,Helvetica,sans-serif;text-anchor:end;" transform="matrix(1 0 0 1 3036 1933)">Template v.2.0</text>
  <text style="stroke:none;fill:black;font-family:-apple-system,&quot;SF Pro Display&quot;,&quot;SF Pro Text&quot;,Helvetica,sans-serif;text-anchor:end;" transform="matrix(1 0 0 1 3036 1951)">Requires Xcode 12 or greater</text>
  <text style="stroke:none;fill:black;font-family:-apple-system,&quot;SF Pro Display&quot;,&quot;SF Pro Text&quot;,Helvetica,sans-serif;text-anchor:end;" transform="matrix(1 0 0 1 3036 1969)">Generated from bell</text>
  <text style="stroke:none;fill:black;font-family:-apple-system,&quot;SF Pro Display&quot;,&quot;SF Pro Text&quot;,Helvetica,sans-serif;text-anchor:end;" transform="matrix(1 0 0 1 3036 1987)">Typeset at 100 points</text>
  <text style="stroke:none;fill:black;font-family:-apple-system,&quot;SF Pro Display&quot;,&quot;SF Pro Text&quot;,Helvetica,sans-serif;" transform="matrix(1 0 0 1 263 726)">Small</text>
  <text style="stroke:none;fill:black;font-family:-apple-system,&quot;SF Pro Display&quot;,&quot;SF Pro Text&quot;,Helvetica,sans-serif;" transform="matrix(1 0 0 1 263 1156)">Medium</text>
  <text style="stroke:none;fill:black;font-family:-apple-system,&quot;SF Pro Display&quot;,&quot;SF Pro Text&quot;,Helvetica,sans-serif;" transform="matrix(1 0 0 1 263 1586)">Large</text>
 </g>
 <g id="Guides">
  <g id="H-reference" style="fill:#27AAE1;stroke:none;" transform="matrix(1 0 0 1 339 696)">
   <path d="M0.976562 0L3.66211 0L12.9883-24.4629L45.752-24.4629L55.127 0L57.7637 0L30.6152-70.459L28.125-70.459ZM29.3457-67.1387L29.4434-67.1387L44.873-26.709L13.8672-26.709Z"/>
  </g>
  <line id="Baseline-S" style="fill:none;stroke:#27AAE1;opacity:1;stroke-width:0.5;" x1="263" x2="3036" y1="696" y2="696"/>
  <line id="Capline-S" style="fill:none;stroke:#27AAE1;opacity:1;stroke-width:0.5;" x1="263" x2="3036" y1="625.541" y2="625.541"/>
  <g id="H-reference" style="fill:#27AAE1;stroke:none;" transform="matrix(1 0 0 1 339 1126)">
   <path d="M0.976562 0L3.66211 0L12.9883-24.4629L45.752-24.4629L55.127 0L57.7637 0L30.6152-70.459L28.125-70.459ZM29.3457-67.1387L29.4434-67.1387L44.873-26.709L13.8672-26.709Z"/>
  </g>
  <line id="Baseline-M" style="fill:none;stroke:#27AAE1;opacity:1;stroke-width:0.5;" x1="263" x2="3036" y1="1126" y2="1126"/>
  <line id="Capline-M" style="fill:none;stroke:#27AAE1;opacity:1;stroke-width:0.5;" x1="263" x2="3036" y1="1055.54" y2="1055.54"/>
  <g id="H-reference" style="fill:#27AAE1;stroke:none;" transform="matrix(1 0 0 1 339 1556)">
   <path d="M0.976562 0L3.66211 0L12.9883-24.4629L45.752-24.4629L55.127 0L57.7637 0L30.6152-70.459L28.125-70.459ZM29.3457-67.1387L29.4434-67.1387L44.873-26.709L13.8672-26.709Z"/>
  </g>
  <line id="Baseline-L" style="fill:none;stroke:#27AAE1;opacity:1;stroke-width:0.5;" x1="263" x2="3036" y1="1556" y2="1556"/>
  <line id="Capline-L" style="fill:none;stroke:#27AAE1;opacity:1;stroke-width:0.5;" x1="263" x2="3036" y1="1485.54" y2="1485.54"/>
  <line id="left-margin" style="fill:none;stroke:#00AEEF;stroke-width:0.5;opacity:1.0;" x1="1393.42" x2="1393.42" y1="1030.79" y2="1150.12"/>
  <line id="right-margin" style="fill:none;stroke:#00AEEF;stroke-width:0.5;opacity:1.0;" x1="1506.27" x2="1506.27" y1="1030.79" y2="1150.12"/>
 </g>
 <g id="Symbols">
  <g id="Black-L" transform="matrix(1 0 0 1 2855.96 1556)">
   <path d="M24.8047 8.59375L47.9492 8.59375C48.4863 20.6055 59.6191 32.959 77.4414 32.959C95.2637 32.959 106.396 20.6055 106.885 8.59375L130.078 8.59375C138.77 8.59375 144.434 3.27148 144.434-4.73633C144.434-12.7441 139.062-18.7988 132.568-23.9258C127.295-28.0273 126.318-35.4492 124.609-48.4863C122.559-69.6777 113.965-85.5957 98.3398-91.2598C94.9707-100.146 87.207-105.957 77.4414-105.957C67.627-105.957 59.9121-100.146 56.543-91.2598C40.918-85.5957 32.3242-69.6777 30.2734-48.4863C28.5156-35.4492 27.5879-28.0273 22.3145-23.9258C15.8203-18.7988 10.4492-12.7441 10.4492-4.73633C10.4492 3.27148 16.1133 8.59375 24.8047 8.59375ZM35.5469-10.1074L35.5469-10.791C38.8672-12.3535 42.041-14.4531 44.4824-17.5781C47.9492-22.1191 49.8535-33.8379 50.7324-44.5312C52.002-64.209 58.8867-71.875 66.8945-73.9746C68.2617-74.3164 69.0918-74.9512 69.3848-77.0508C69.9707-82.9102 72.9004-86.1816 77.4414-86.1816C81.9336-86.1816 84.9121-82.9102 85.498-77.0508C85.791-74.9512 86.6211-74.3164 87.9883-73.9746C95.9961-71.875 102.881-64.209 104.15-44.5312C105.029-33.8379 107.031-22.1191 110.4-17.5781C112.744-14.4531 115.43-12.3535 118.75-10.791L118.75-10.1074ZM77.4414 18.3594C71.8262 18.3594 67.627 14.3555 67.2363 8.59375L87.6465 8.59375C87.2559 14.3555 83.0566 18.3594 77.4414 18.3594Z"/>
  </g>
  <g id="Heavy-L" transform="matrix(1 0 0 1 2560.35 1556)">
   <path d="M24.1699 8.10547L48.6328 8.10547C49.1211 20.0684 59.7168 31.8848 76.3672 31.8848C92.9688 31.8848 103.613 20.0684 104.102 8.10547L128.564 8.10547C136.377 8.10547 141.406 3.41797 141.406-3.66211C141.406-11.2793 135.84-17.1875 129.639-22.4609C124.512-26.8066 123.584-34.9121 122.021-47.0215C120.264-68.5547 112.207-84.2773 96.4355-89.9414C93.4082-98.6816 85.9375-104.639 76.3672-104.639C66.748-104.639 59.2773-98.6816 56.25-89.9414C40.4785-84.2773 32.4219-68.5547 30.6641-47.0215C29.1504-34.9121 28.2227-26.8066 23.0957-22.4609C16.8457-17.1875 11.2793-11.2793 11.2793-3.66211C11.2793 3.41797 16.3086 8.10547 24.1699 8.10547ZM32.9102-8.10547L32.9102-8.83789C35.6445-10.498 39.0625-13.1348 41.6992-16.4062C45.6055-21.2402 47.4121-32.5684 48.291-43.7988C49.5117-64.6973 56.543-72.6562 65.2344-75C66.6992-75.3418 67.5781-76.0254 67.8223-77.9785C68.3594-84.0332 71.4844-87.6465 76.3672-87.6465C81.2012-87.6465 84.375-84.0332 84.9121-77.9785C85.1562-76.0254 86.0352-75.3418 87.4512-75C96.1426-72.6562 103.223-64.6973 104.395-43.7988C105.322-32.5684 107.178-21.2402 110.986-16.4062C113.623-13.1348 116.602-10.498 119.385-8.83789L119.385-8.10547ZM76.3672 18.9453C70.2637 18.9453 65.7227 14.5508 65.332 8.10547L87.4023 8.10547C86.9629 14.5508 82.4707 18.9453 76.3672 18.9453Z"/>
  </g>
  <g id="Bold-L" transform="matrix(1 0 0 1 2264.83 1556)">
   <path d="M23.4375 7.56836L49.3164 7.56836C49.8047 19.4824 59.8633 30.7129 75.1465 30.7129C90.4297 30.7129 100.488 19.5312 100.928 7.56836L126.855 7.56836C133.74 7.56836 138.086 3.56445 138.086-2.44141C138.086-9.61914 132.275-15.4297 126.367-20.8008C121.338-25.3906 120.508-34.3262 119.189-45.3125C117.773-67.2852 110.254-82.8613 94.3359-88.4766C91.6992-97.0703 84.5215-103.125 75.1465-103.125C65.7715-103.125 58.5938-97.0703 55.957-88.4766C39.9902-82.8613 32.5195-67.2852 31.1035-45.3125C29.7852-34.3262 28.9551-25.3906 23.9258-20.8008C18.0176-15.4297 12.207-9.61914 12.207-2.44141C12.207 3.56445 16.5527 7.56836 23.4375 7.56836ZM29.9316-5.85938L29.9316-6.5918C32.0312-8.49609 35.6934-11.6211 38.623-15.1367C43.0176-20.2637 44.6777-31.1523 45.5566-42.9688C46.6797-65.2344 53.9062-73.5352 63.3789-76.0742C64.9414-76.4648 65.8203-77.1973 66.0645-79.1016C66.5527-85.2539 69.873-89.2578 75.1465-89.2578C80.4199-89.2578 83.7402-85.2539 84.2285-79.1016C84.4238-77.1973 85.3516-76.4648 86.9141-76.0742C96.3379-73.5352 103.564-65.2344 104.688-42.9688C105.615-31.1523 107.324-20.2637 111.67-15.1367C114.551-11.6211 117.92-8.49609 120.068-6.5918L120.068-5.85938ZM75.1465 19.6289C68.5059 19.6289 63.5742 14.7949 63.1836 7.56836L87.1094 7.56836C86.8164 14.6973 81.8848 19.6289 75.1465 19.6289Z"/>
  </g>
  <g id="Semibold-L" transform="matrix(1 0 0 1 1968.95 1556)">
   <path d="M22.9492 7.17773L49.8535 7.17773C50.1953 18.9941 59.9121 29.8828 74.3164 29.8828C88.623 29.8828 98.291 19.1406 98.7793 7.17773L125.684 7.17773C131.885 7.17773 135.791 3.66211 135.791-1.61133C135.791-8.49609 129.834-14.209 124.121-19.6289C119.189-24.4141 118.359-33.8867 117.236-44.1406C116.016-66.4062 108.936-81.8359 92.8711-87.4512C90.4785-95.9473 83.5449-102.1 74.3164-102.1C65.0879-102.1 58.1055-95.9473 55.7617-87.4512C39.6973-81.8359 32.6172-66.4062 31.3965-44.1406C30.2734-33.8867 29.4434-24.4141 24.5117-19.6289C18.7988-14.209 12.8418-8.49609 12.8418-1.61133C12.8418 3.66211 16.748 7.17773 22.9492 7.17773ZM27.9297-4.3457L27.9297-5.0293C29.5898-7.08008 33.3496-10.5957 36.5234-14.209C41.2109-19.5801 42.7734-30.1758 43.7012-42.3828C44.7754-65.625 52.0996-74.1699 62.1094-76.8555C63.7207-77.2461 64.6484-78.0273 64.8438-79.834C65.2832-86.1328 68.7988-90.3809 74.3164-90.3809C79.834-90.3809 83.3496-86.1328 83.7891-79.834C83.9355-78.0273 84.8633-77.2461 86.5234-76.8555C96.4844-74.1699 103.857-65.625 104.883-42.3828C105.811-30.1758 107.422-19.5801 112.109-14.209C115.234-10.5957 118.848-7.08008 120.508-5.0293L120.508-4.3457ZM74.3164 20.0684C67.2852 20.0684 62.1582 14.9902 61.7188 7.17773L86.9141 7.17773C86.5723 14.8926 81.3965 20.0684 74.3164 20.0684Z"/>
  </g>
  <g id="Medium-L" transform="matrix(1 0 0 1 1672.87 1556)">
   <path d="M22.5586 6.88477L50.1953 6.88477C50.6348 18.75 60.0098 29.2969 73.6816 29.2969C87.2559 29.2969 96.6797 18.8477 97.1191 6.88477L124.756 6.88477C130.469 6.88477 134.033 3.75977 134.033-0.976562C134.033-7.61719 127.93-13.2812 122.412-18.7988C117.529-23.7305 116.748-33.5938 115.723-43.3105C114.697-65.7715 107.91-81.1035 91.748-86.6699C89.5996-95.1172 82.7637-101.318 73.6816-101.318C64.5508-101.318 57.7637-95.1172 55.6152-86.6699C39.4043-81.1035 32.666-65.7715 31.5918-43.3105C30.6152-33.5938 29.834-23.7305 24.9512-18.7988C19.3848-13.2812 13.3301-7.61719 13.3301-0.976562C13.3301 3.75977 16.8457 6.88477 22.5586 6.88477ZM26.3672-3.17383L26.3672-3.90625C27.6855-6.00586 31.5918-9.81445 34.9121-13.5742C39.8438-19.0918 41.3574-29.4434 42.2852-41.9434C43.3105-65.918 50.7324-74.6094 61.1328-77.4414C62.793-77.832 63.7695-78.6133 63.916-80.3711C64.3066-86.7676 67.9199-91.2598 73.6816-91.2598C79.3945-91.2598 83.0078-86.7676 83.4473-80.3711C83.5938-78.6133 84.5215-77.832 86.2305-77.4414C96.582-74.6094 104.053-65.918 105.078-41.9434C105.957-29.4434 107.52-19.0918 112.451-13.5742C115.723-9.81445 119.531-6.00586 120.898-3.90625L120.898-3.17383ZM73.6816 20.4102C66.3574 20.4102 61.0352 15.1367 60.5957 6.88477L86.7676 6.88477C86.377 15.0879 81.0059 20.4102 73.6816 20.4102Z"/>
  </g>
  <g id="Regular-L" transform="matrix(1 0 0 1 1376.99 1556)">
   <path d="M22.0703 6.54297L86.5723 6.54297C86.084 15.2832 80.5664 20.8984 72.8516 20.8984C65.1367 20.8984 59.6191 15.2832 59.1309 6.54297L50.7324 6.54297C51.1719 18.4082 60.2051 28.4668 72.8516 28.4668C85.498 28.4668 94.5312 18.457 94.9707 6.54297L123.584 6.54297C128.662 6.54297 131.738 3.85742 131.738-0.146484C131.738-6.49414 125.488-12.0605 120.166-17.627C115.381-22.7539 114.648-33.2031 113.818-42.1387C112.988-64.8926 106.592-80.127 90.332-85.6445C88.3789-93.9941 81.7871-100.293 72.8516-100.293C63.916-100.293 57.2754-93.9941 55.3711-85.6445C39.1113-80.127 32.7148-64.8926 31.8848-42.1387C31.0547-33.2031 30.3223-22.7539 25.5371-17.627C20.166-12.0605 13.9648-6.49414 13.9648-0.146484C13.9648 3.85742 17.041 6.54297 22.0703 6.54297ZM24.3652-1.61133L24.3652-2.34375C25.2441-4.63867 29.2969-8.83789 32.8125-12.6465C38.0859-18.4082 39.502-28.4668 40.4297-41.3574C41.4062-66.2598 48.9746-75.2441 59.8633-78.1738C61.6211-78.6133 62.5977-79.4434 62.6953-81.1035C63.0859-87.6465 66.8457-92.334 72.8516-92.334C78.8574-92.334 82.6172-87.6465 82.959-81.1035C83.1055-79.4434 84.082-78.6133 85.8398-78.1738C96.7285-75.2441 104.297-66.2598 105.273-41.3574C106.201-28.4668 107.617-18.4082 112.891-12.6465C116.406-8.83789 120.459-4.63867 121.338-2.34375L121.338-1.61133Z"/>
  </g>
  <g id="Light-L" transform="matrix(1 0 0 1 1080.26 1556)">
   <path d="M20.9961 6.25L86.8652 6.25C86.4258 15.332 80.7129 21.1914 72.9004 21.1914C65.0391 21.1914 59.3262 15.332 58.8867 6.25L52.3926 6.25C52.7344 17.8223 61.084 27.0508 72.9004 27.0508C84.668 27.0508 93.0176 17.8711 93.3594 6.25L124.756 6.25C128.613 6.25 131.006 4.10156 131.006 0.878906C131.006-5.51758 125-10.9375 119.824-16.5527C114.209-22.7051 114.014-35.1562 112.646-46.4355C111.328-66.3574 104.98-80.4688 89.3555-85.2539C87.7441-93.7988 81.3477-99.8535 72.9004-99.8535C64.4043-99.8535 58.0078-93.7988 56.3965-85.2539C40.7715-80.4688 34.4238-66.3574 33.1055-46.4355C31.7871-35.1562 31.543-22.7051 25.9277-16.5527C20.752-10.9375 14.7461-5.51758 14.7461 0.878906C14.7461 4.10156 17.1387 6.25 20.9961 6.25ZM22.6074-0.0488281L22.6074-0.78125C23.1445-3.66211 27.6367-8.49609 31.3965-12.5C37.6953-19.2383 38.1836-32.0312 39.6484-45.6543C41.2109-66.9922 47.9492-76.2207 58.9844-79.1992C60.9375-79.7363 62.0605-80.5176 62.2559-82.373C62.8418-88.8184 66.6504-93.7012 72.9004-93.7012C79.1016-93.7012 82.9102-88.8184 83.4961-82.373C83.6914-80.5176 84.8145-79.7363 86.7676-79.1992C97.8027-76.2207 104.541-66.9922 106.104-45.6543C107.568-32.0312 108.057-19.2383 114.355-12.5C118.115-8.49609 122.607-3.66211 123.145-0.78125L123.145-0.0488281Z"/>
  </g>
  <g id="Thin-L" transform="matrix(1 0 0 1 783.497 1556)">
   <path d="M19.5801 5.85938L87.3047 5.85938C86.8164 15.3809 80.9082 21.582 72.9004 21.582C64.9414 21.582 59.0332 15.3809 58.5449 5.85938L54.6387 5.85938C54.834 17.041 62.3047 25.1953 72.9004 25.1953C83.4961 25.1953 90.9668 17.041 91.2109 5.85938L126.27 5.85938C128.516 5.85938 130.029 4.39453 130.029 2.19727C130.029-4.24805 124.316-9.52148 119.385-15.0879C112.646-22.6074 113.135-37.793 111.133-52.0996C109.131-68.3105 102.832-80.957 88.0859-84.7656C86.8164-93.5547 80.8105-99.2676 72.9004-99.2676C65.0391-99.2676 58.9844-93.5547 57.7637-84.7656C42.9688-80.957 36.7188-68.3105 34.7168-52.0996C32.7148-37.793 33.1543-22.6074 26.4648-15.0879C21.4844-9.52148 15.7715-4.24805 15.7715 2.19727C15.7715 4.39453 17.334 5.85938 19.5801 5.85938ZM20.3125 2.00195L20.3125 1.31836C20.4102-2.34375 25.4395-8.05664 29.4922-12.3047C37.207-20.3613 36.4258-36.6699 38.623-51.3672C40.918-67.9688 46.582-77.5391 57.8125-80.5664C60.0586-81.2012 61.377-82.0312 61.6699-84.0332C62.5488-90.332 66.4062-95.459 72.9004-95.459C79.4434-95.459 83.3008-90.332 84.1797-84.0332C84.4727-82.0312 85.791-81.2012 88.0371-80.5664C99.2676-77.5391 104.932-67.9688 107.227-51.3672C109.424-36.6699 108.643-20.3613 116.309-12.3047C120.41-8.05664 125.439-2.34375 125.537 1.31836L125.537 2.00195Z"/>
  </g>
  <g id="Ultralight-L" transform="matrix(1 0 0 1 486.786 1556)">
   <path d="M18.8477 5.66406L87.5 5.66406C87.0117 15.4297 81.0059 21.7773 72.9492 21.7773C64.8438 21.7773 58.8379 15.4297 58.3496 5.66406L55.8105 5.66406C55.9082 16.6504 62.9395 24.2676 72.9492 24.2676C82.959 24.2676 89.9414 16.6504 90.0879 5.66406L127.002 5.66406C128.467 5.66406 129.541 4.54102 129.541 2.83203C129.541-3.61328 123.975-8.78906 119.141-14.3066C111.865-22.5586 112.695-39.1113 110.352-55.0293C108.008-69.2871 101.758-81.25 87.4023-84.5215C86.377-93.457 80.5176-98.9746 72.9492-98.9746C65.3809-98.9746 59.4727-93.457 58.4473-84.5215C44.1406-81.25 37.8418-69.2871 35.5469-55.0293C33.2031-39.1113 33.9844-22.5586 26.7578-14.3066C21.875-8.78906 16.3086-3.61328 16.3086 2.83203C16.3086 4.54102 17.3828 5.66406 18.8477 5.66406ZM19.1406 3.02734L19.1406 2.39258C18.9941-1.66016 24.2676-7.8125 28.5645-12.207C36.9141-20.8984 35.498-39.0625 38.0859-54.2969C40.7715-68.5059 45.8984-78.2227 57.1777-81.2988C59.6191-81.9336 61.0352-82.7637 61.377-84.9121C62.4023-91.1621 66.2598-96.3379 72.9492-96.3379C79.5898-96.3379 83.4961-91.1621 84.5215-84.9121C84.8633-82.7637 86.2793-81.9336 88.6719-81.2988C100-78.2227 105.078-68.5059 107.764-54.2969C110.352-39.0625 108.936-20.8984 117.334-12.207C121.582-7.8125 126.855-1.66016 126.758 2.39258L126.758 3.02734Z"/>
  </g>
  <g id="Black-M" transform="matrix(1 0 0 1 2871.9 1126)">
   <path d="M19.5312-0.732422L37.207-0.732422C37.5977 8.39844 46.5332 18.2617 61.5234 18.2617C76.4648 18.2617 85.4004 8.39844 85.791-0.732422L103.467-0.732422C110.742-0.732422 115.576-5.46875 115.576-12.5488C115.576-19.2871 111.816-24.0234 106.494-27.8809C101.855-31.2988 101.318-37.1582 99.3652-49.8047C97.168-64.2578 89.7949-76.1719 78.2715-80.2734C75.3906-87.4023 69.0918-91.6016 61.5234-91.6016C53.9062-91.6016 47.6562-87.4023 44.7754-80.2734C33.2031-76.1719 25.8789-64.2578 23.6328-49.8047C21.7285-37.1582 21.1914-31.2988 16.5039-27.8809C11.1816-24.0234 7.42188-19.2871 7.42188-12.5488C7.42188-5.46875 12.2559-0.732422 19.5312-0.732422ZM30.1758-17.6758L30.1758-18.1641C33.3496-19.3848 35.791-20.752 37.4512-23.0469C40.1367-26.6602 41.2109-37.7441 42.1875-45.752C43.6035-57.4219 48.2422-63.0859 53.6133-64.502C54.6875-64.7461 55.3711-65.1855 55.6641-66.9922C56.3477-71.2891 58.3496-73.4863 61.5234-73.4863C64.6484-73.4863 66.6992-71.2891 67.334-66.9922C67.6758-65.1855 68.3594-64.7461 69.3848-64.502C74.7559-63.0859 79.4434-57.4219 80.8594-45.752C81.7871-37.7441 83.0078-26.6602 85.5469-23.0469C87.1582-20.752 89.0137-19.3848 92.1875-18.1641L92.1875-17.6758ZM61.5234 5.61523C57.7637 5.61523 54.8828 2.92969 54.5898-0.732422L68.457-0.732422C68.1641 2.92969 65.2344 5.61523 61.5234 5.61523Z"/>
  </g>
  <g id="Heavy-M" transform="matrix(1 0 0 1 2576.39 1126)">
   <path d="M19.0918-1.2207L37.5-1.2207C37.8418 8.00781 46.4355 17.4805 60.3027 17.4805C74.1699 17.4805 82.7637 8.00781 83.1543-1.2207L101.514-1.2207C108.154-1.2207 112.5-5.37109 112.5-11.6211C112.5-17.9199 108.447-22.6074 103.369-26.5625C99.0723-29.9316 98.4375-36.084 96.875-47.0703C95.1172-62.6465 88.3301-74.6582 76.416-78.9062C73.8281-85.8398 67.8223-90.2832 60.3027-90.2832C52.7832-90.2832 46.7773-85.8398 44.1895-78.9062C32.2754-74.6582 25.4883-62.6465 23.7305-47.0703C22.168-36.084 21.5332-29.9316 17.2363-26.5625C12.1582-22.6074 8.10547-17.9199 8.10547-11.6211C8.10547-5.37109 12.4512-1.2207 19.0918-1.2207ZM27.7344-15.8691L27.7344-16.3574C30.3711-17.6758 32.9102-19.3848 34.8145-21.8262C37.6465-25.4883 38.916-35.4492 39.6973-43.7988C40.8691-57.7637 45.9473-63.6719 52.0508-65.2832C53.125-65.5762 53.8086-66.0156 54.0527-67.7246C54.5898-72.2168 56.8359-74.707 60.3027-74.707C63.7695-74.707 66.0156-72.2168 66.5527-67.7246C66.7969-66.0156 67.4805-65.5762 68.6035-65.2832C74.6582-63.6719 79.7363-57.7637 80.9082-43.7988C81.7383-35.4492 83.0566-25.4883 85.8398-21.8262C87.6465-19.3848 89.7461-17.6758 92.3828-16.3574L92.3828-15.8691ZM60.3027 6.20117C56.0547 6.20117 52.832 3.125 52.5391-1.2207L68.0664-1.2207C67.7734 3.125 64.5508 6.20117 60.3027 6.20117Z"/>
  </g>
  <g id="Bold-M" transform="matrix(1 0 0 1 2281.02 1126)">
   <path d="M18.6035-1.70898L37.793-1.70898C38.1348 7.51953 46.2891 16.6016 58.9844 16.6016C71.6309 16.6016 79.7852 7.56836 80.1758-1.70898L99.3164-1.70898C105.225-1.70898 109.033-5.27344 109.033-10.5469C109.033-16.4062 104.688-20.9473 99.9023-25.0488C95.9473-28.4668 95.2637-34.8633 94.0918-43.9941C92.8223-60.8398 86.6699-72.998 74.3652-77.3926C72.1191-84.1309 66.3574-88.7695 58.9844-88.7695C51.5625-88.7695 45.8008-84.1309 43.5547-77.3926C31.25-72.998 25.0977-60.8398 23.8281-43.9941C22.6562-34.8633 21.9727-28.4668 18.0176-25.0488C13.2324-20.9473 8.88672-16.4062 8.88672-10.5469C8.88672-5.27344 12.6953-1.70898 18.6035-1.70898ZM25-13.8672L25-14.4043C27.0508-15.7227 29.6875-17.8711 31.8359-20.4102C34.9121-24.2188 36.2793-32.8613 36.9629-41.6504C37.8906-58.1543 43.4082-64.3555 50.2441-66.2109C51.416-66.5039 52.0508-66.9922 52.2461-68.5547C52.6367-73.2422 55.127-76.123 58.9844-76.123C62.793-76.123 65.2832-73.2422 65.6738-68.5547C65.8691-66.9922 66.5527-66.5039 67.6758-66.2109C74.5605-64.3555 80.0293-58.1543 80.957-41.6504C81.6406-32.8613 83.0566-24.2188 86.084-20.4102C88.1836-17.8711 90.5762-15.7227 92.5781-14.4043L92.5781-13.8672ZM58.9844 6.83594C54.1504 6.83594 50.5859 3.41797 50.2441-1.70898L67.6758-1.70898C67.334 3.41797 63.7695 6.83594 58.9844 6.83594Z"/>
  </g>
  <g id="Semibold-M" transform="matrix(1 0 0 1 1985.23 1126)">
   <path d="M18.3105-2.09961L37.9883-2.09961C38.2324 7.08008 46.1426 16.0156 58.0566 16.0156C69.873 16.0156 77.7344 7.27539 78.125-2.09961L97.8027-2.09961C103.223-2.09961 106.641-5.17578 106.641-9.86328C106.641-15.332 102.1-19.8242 97.5098-24.0234C93.7988-27.3926 93.0664-33.9844 92.1875-41.8457C91.2109-59.5703 85.498-71.8262 72.998-76.3184C70.9473-82.959 65.3809-87.7441 58.0566-87.7441C50.6836-87.7441 45.1172-82.959 43.1152-76.3184C30.5664-71.8262 24.8535-59.5703 23.877-41.8457C23.0469-33.9844 22.2656-27.3926 18.5547-24.0234C14.0137-19.8242 9.42383-15.332 9.42383-9.86328C9.42383-5.17578 12.8418-2.09961 18.3105-2.09961ZM23.1445-12.5L23.1445-13.0371C24.7559-14.4043 27.4902-16.7969 29.7852-19.4824C33.0078-23.291 34.4727-31.1035 35.0586-40.1367C35.791-58.3984 41.6016-64.8438 49.0234-66.8457C50.1953-67.1387 50.8789-67.6758 51.0254-69.0918C51.3184-73.9258 53.9551-77.0508 58.0566-77.0508C62.1094-77.0508 64.7461-73.9258 65.0391-69.0918C65.1855-67.6758 65.8691-67.1387 67.041-66.8457C74.4629-64.8438 80.2734-58.3984 81.0059-40.1367C81.5918-31.1035 83.1055-23.291 86.2793-19.4824C88.5742-16.7969 91.1133-14.4043 92.7246-13.0371L92.7246-12.5ZM58.0566 7.32422C52.832 7.32422 49.0234 3.56445 48.6816-2.09961L67.3828-2.09961C67.1387 3.51562 63.3301 7.32422 58.0566 7.32422Z"/>
  </g>
  <g id="Medium-M" transform="matrix(1 0 0 1 1689.23 1126)">
   <path d="M18.0176-2.34375L38.1348-2.34375C38.4766 6.93359 46.0938 15.5273 57.3242 15.5273C68.5059 15.5273 76.1719 7.03125 76.5625-2.34375L96.6309-2.34375C101.709-2.34375 104.834-5.12695 104.834-9.32617C104.834-14.5508 100.098-18.9941 95.6543-23.2422C92.1875-26.6113 91.3574-33.3496 90.7227-40.2344C90.0391-58.6426 84.6191-70.9473 71.9238-75.5371C70.0195-82.0312 64.5996-86.9629 57.3242-86.9629C50.0488-86.9629 44.6289-82.0312 42.7734-75.5371C30.0293-70.9473 24.6582-58.6426 23.9258-40.2344C23.291-33.3496 22.4609-26.6113 18.9941-23.2422C14.5508-18.9941 9.81445-14.5508 9.81445-9.32617C9.81445-5.12695 12.9395-2.34375 18.0176-2.34375ZM21.7285-11.4258L21.7285-12.0117C22.998-13.4277 25.8301-16.0156 28.2227-18.75C31.5918-22.6074 33.1543-29.7363 33.6426-39.0137C34.2285-58.5938 40.2832-65.1855 48.0957-67.2852C49.3164-67.627 49.9512-68.2129 50.0488-69.5312C50.293-74.4629 53.0762-77.7832 57.3242-77.7832C61.6211-77.7832 64.3555-74.4629 64.5996-69.5312C64.6973-68.2129 65.3809-67.627 66.5527-67.2852C74.4141-65.1855 80.4199-58.5938 81.0059-39.0137C81.543-29.7363 83.1055-22.6074 86.4258-18.75C88.8184-16.0156 91.5527-13.4277 92.8223-12.0117L92.8223-11.4258ZM57.3242 7.66602C51.8066 7.66602 47.8516 3.71094 47.5098-2.34375L67.1875-2.34375C66.8945 3.66211 62.8906 7.66602 57.3242 7.66602Z"/>
  </g>
  <g id="Regular-M" transform="matrix(1 0 0 1 1393.42 1126)">
   <path d="M17.7246-2.68555L66.8945-2.68555C66.5039 3.90625 62.3047 8.10547 56.3965 8.10547C50.5371 8.10547 46.2891 3.90625 45.9473-2.68555L38.3301-2.68555C38.7207 6.68945 46.0938 14.9414 56.3965 14.9414C66.748 14.9414 74.1211 6.73828 74.5117-2.68555L95.1172-2.68555C99.707-2.68555 102.49-5.07812 102.49-8.59375C102.49-13.4766 97.5098-17.8711 93.3105-22.2168C90.0879-25.5859 89.209-32.5195 88.8184-38.1348C88.4766-57.373 83.4961-69.8242 70.5078-74.5117C68.8477-80.8594 63.623-85.9375 56.3965-85.9375C49.2188-85.9375 43.9453-80.8594 42.334-74.5117C29.3457-69.8242 24.3652-57.373 24.0234-38.1348C23.6328-32.5195 22.7539-25.5859 19.5312-22.2168C15.2832-17.8711 10.3516-13.4766 10.3516-8.59375C10.3516-5.07812 13.0859-2.68555 17.7246-2.68555ZM19.8242-10.0586L19.8242-10.6445C20.7031-12.1094 23.6328-14.9414 26.1719-17.8223C29.6875-21.7285 31.3477-27.9785 31.7871-37.5488C32.1777-58.8379 38.5254-65.6738 46.875-67.9199C48.0957-68.2129 48.7793-68.8477 48.8281-70.0684C48.9746-75.1953 51.9043-78.7598 56.3965-78.7598C60.9375-78.7598 63.8184-75.1953 64.0137-70.0684C64.0625-68.8477 64.6973-68.2129 65.918-67.9199C74.3164-65.6738 80.6641-58.8379 81.0547-37.5488C81.4941-27.9785 83.1543-21.7285 86.6211-17.8223C89.209-14.9414 92.0898-12.1094 92.9688-10.6445L92.9688-10.0586Z"/>
  </g>
  <g id="Light-M" transform="matrix(1 0 0 1 1096.69 1126)">
   <path d="M16.748-2.97852L67.1875-2.97852C66.7969 3.95508 62.4512 8.34961 56.4453 8.34961C50.4395 8.34961 46.0938 3.95508 45.7031-2.97852L39.8438-2.97852C40.1367 6.15234 46.9238 13.6719 56.4453 13.6719C65.9668 13.6719 72.7539 6.20117 73.0469-2.97852L96.1426-2.97852C99.6582-2.97852 101.855-4.88281 101.855-7.71484C101.855-12.6465 97.0703-16.8945 92.9688-21.2402C89.0137-25.5371 88.623-34.3262 87.793-41.9922C87.0117-58.6914 82.0801-70.1172 69.6777-74.1699C68.2617-80.7129 63.2324-85.498 56.4453-85.498C49.6582-85.498 44.6289-80.7129 43.2617-74.1699C30.8105-70.1172 25.9277-58.6914 25.0977-41.9922C24.2676-34.3262 23.877-25.5371 19.9219-21.2402C15.8203-16.8945 11.084-12.6465 11.084-7.71484C11.084-4.88281 13.2324-2.97852 16.748-2.97852ZM18.2617-8.69141L18.2617-9.22852C18.8477-11.1816 22.1191-14.6484 24.9512-17.6758C29.3457-22.4609 30.1758-31.1523 31.0547-41.4062C31.9824-59.5215 37.5977-66.5527 46.0938-68.8477C47.5098-69.2383 48.291-69.873 48.4375-71.1914C48.7793-76.2207 51.709-79.9316 56.4453-79.9316C61.1816-79.9316 64.1113-76.2207 64.4531-71.1914C64.5996-69.873 65.3809-69.2383 66.7969-68.8477C75.293-66.5527 80.9082-59.5215 81.8359-41.4062C82.7148-31.1523 83.5449-22.4609 87.9395-17.6758C90.7715-14.6484 94.043-11.1816 94.6289-9.22852L94.6289-8.69141Z"/>
  </g>
  <g id="Thin-M" transform="matrix(1 0 0 1 799.928 1126)">
   <path d="M15.4785-3.32031L67.5293-3.32031C67.1875 4.00391 62.6465 8.69141 56.4941 8.69141C50.3418 8.69141 45.8008 4.00391 45.4102-3.32031L41.8457-3.32031C42.041 5.46875 47.998 12.0117 56.4941 12.0117C64.9414 12.0117 70.9473 5.46875 71.1426-3.32031L97.5098-3.32031C99.6094-3.32031 100.977-4.58984 100.977-6.54297C100.977-11.4746 96.4844-15.625 92.5781-19.9219C87.6465-25.4395 87.8418-36.6699 86.4258-47.0703C85.0586-60.4492 80.1758-70.5566 68.5059-73.7305C67.4805-80.4688 62.7441-85.0098 56.4941-85.0098C50.2441-85.0098 45.5078-80.4688 44.4824-73.7305C32.8125-70.5566 27.9297-60.4492 26.5137-47.0703C25.1465-36.6699 25.3418-25.4395 20.3613-19.9219C16.5039-15.625 12.0117-11.4746 12.0117-6.54297C12.0117-4.58984 13.3789-3.32031 15.4785-3.32031ZM16.2109-6.83594L16.2109-7.37305C16.4062-10.0098 20.166-14.2578 23.2422-17.5293C28.9062-23.4375 28.5645-35.3516 30.127-46.4844C31.7383-60.4004 36.377-67.7246 45.0195-70.0684C46.7285-70.5566 47.7051-71.1426 47.9004-72.7051C48.5352-77.6367 51.5137-81.4941 56.4941-81.4941C61.4746-81.4941 64.4531-77.6367 65.0879-72.7051C65.2832-71.1426 66.2598-70.5566 67.9199-70.0684C76.6113-67.7246 81.2012-60.4004 82.8125-46.4844C84.375-35.3516 84.082-23.4375 89.6973-17.5293C92.8223-14.2578 96.582-10.0098 96.7773-7.37305L96.7773-6.83594Z"/>
  </g>
  <g id="Ultralight-M" transform="matrix(1 0 0 1 503.193 1126)">
   <path d="M14.8438-3.4668L67.7246-3.4668C67.3828 4.00391 62.7441 8.88672 56.4941 8.88672C50.293 8.88672 45.6543 4.00391 45.2637-3.4668L42.8711-3.4668C43.0176 5.07812 48.584 11.1816 56.4941 11.1816C64.4531 11.1816 70.0195 5.07812 70.1172-3.4668L98.1934-3.4668C99.5605-3.4668 100.537-4.44336 100.537-5.9082C100.537-10.8887 96.1914-14.9414 92.3828-19.2383C86.9141-25.3906 87.4512-37.8418 85.7422-49.6582C84.0332-61.3281 79.1992-70.8008 67.9199-73.4863C67.0898-80.3711 62.4512-84.7168 56.4941-84.7168C50.5371-84.7168 45.9473-80.3711 45.1172-73.4863C33.8379-70.8008 29.0039-61.3281 27.2949-49.6582C25.5859-37.8418 26.0742-25.3906 20.6543-19.2383C16.8457-14.9414 12.5-10.8887 12.5-5.9082C12.5-4.44336 13.4277-3.4668 14.8438-3.4668ZM15.1855-5.9082L15.1855-6.39648C15.1367-9.42383 19.1406-14.0625 22.4121-17.4316C28.7109-23.9746 27.7832-37.5 29.6875-49.1211C31.6406-60.8398 35.791-68.3594 44.4824-70.7031C46.3379-71.1914 47.3633-71.8262 47.6562-73.4863C48.3887-78.3203 51.3672-82.3242 56.4941-82.3242C61.6211-82.3242 64.6484-78.3203 65.3809-73.4863C65.625-71.8262 66.6992-71.1914 68.5059-70.7031C77.2461-68.3594 81.3965-60.8398 83.3496-49.1211C85.2539-37.5 84.3262-23.9746 90.625-17.4316C93.8477-14.0625 97.8516-9.42383 97.8516-6.39648L97.8516-5.9082Z"/>
  </g>
  <g id="Black-S" transform="matrix(1 0 0 1 2885.3 696)">
   <path d="M15.2832-8.25195L29.1504-8.25195C29.4922-1.07422 36.4746 6.64062 48.0957 6.64062C59.7656 6.64062 66.748-1.07422 67.041-8.25195L80.9082-8.25195C86.5723-8.25195 90.332-11.9141 90.332-17.3828C90.332-22.6562 87.3535-26.3672 83.2031-29.3945C79.5898-32.0312 79.1504-36.6211 77.6855-46.3867C75.9766-57.8125 70.2637-67.1875 61.1816-70.4102C58.9355-75.9766 54.0527-79.2969 48.0957-79.2969C42.1387-79.2969 37.2559-75.9766 35.0098-70.4102C25.9277-67.1875 20.2148-57.8125 18.5059-46.3867C17.041-36.6211 16.6016-32.0312 12.9883-29.3945C8.83789-26.3672 5.85938-22.6562 5.85938-17.3828C5.85938-11.9141 9.61914-8.25195 15.2832-8.25195ZM23.4863-21.3379L23.4863-21.7285C25.9277-22.7051 27.832-23.7793 29.1504-25.5859C31.25-28.418 32.1289-36.9629 32.8613-43.2617C33.9355-52.6367 37.6465-57.0801 41.8945-58.2031C42.7246-58.3984 43.2617-58.7402 43.5059-60.1562C43.9941-63.5254 45.6055-65.2832 48.0957-65.2832C50.5859-65.2832 52.1973-63.5254 52.6855-60.1562C52.9297-58.7402 53.4668-58.3984 54.2969-58.2031C58.5449-57.0801 62.2559-52.6367 63.3301-43.2617C64.0625-36.9629 65.0391-28.418 67.041-25.5859C68.3105-23.7793 69.7754-22.7051 72.2168-21.7285L72.2168-21.3379ZM48.0957-3.17383C45.1172-3.17383 42.8223-5.32227 42.5781-8.25195L53.6133-8.25195C53.3691-5.32227 51.0742-3.17383 48.0957-3.17383Z"/>
  </g>
  <g id="Heavy-S" transform="matrix(1 0 0 1 2589.52 696)">
   <path d="M15.0391-8.59375L29.1992-8.59375C29.4922-1.31836 36.2793 6.20117 47.168 6.20117C58.1055 6.20117 64.8438-1.31836 65.1367-8.59375L79.2969-8.59375C84.5703-8.59375 88.0371-11.8652 88.0371-16.7969C88.0371-21.6797 84.8145-25.3418 80.8594-28.4668C77.5879-31.0059 77.0508-35.5957 75.8789-43.8477C74.5605-56.4453 69.2871-66.0156 59.8633-69.3848C57.8125-74.8047 53.125-78.3203 47.168-78.3203C41.2598-78.3203 36.5234-74.8047 34.4727-69.3848C25.0488-66.0156 19.7754-56.4453 18.457-43.8477C17.334-35.5957 16.748-31.0059 13.4766-28.4668C9.52148-25.3418 6.29883-21.6797 6.29883-16.7969C6.29883-11.8652 9.76562-8.59375 15.0391-8.59375ZM21.7773-20.1172L21.7773-20.5566C23.8281-21.4844 25.7812-22.7539 27.2461-24.6582C29.3945-27.4414 30.4688-34.8633 31.0547-41.3574C31.8848-52.832 35.9863-57.4707 40.7715-58.7402C41.6016-58.9355 42.1387-59.2773 42.334-60.5957C42.6758-64.1113 44.4336-66.1133 47.168-66.1133C49.9023-66.1133 51.6602-64.1113 52.0508-60.5957C52.1973-59.2773 52.7344-58.9355 53.5645-58.7402C58.3496-57.4707 62.4512-52.832 63.2812-41.3574C63.8672-34.8633 65.0391-27.4414 67.0898-24.6582C68.5059-22.7539 70.1172-21.4844 72.168-20.5566L72.168-20.1172ZM47.168-2.7832C43.8477-2.7832 41.3086-5.17578 41.0645-8.59375L53.2715-8.59375C53.0273-5.12695 50.4883-2.7832 47.168-2.7832Z"/>
  </g>
  <g id="Bold-S" transform="matrix(1 0 0 1 2293.84 696)">
   <path d="M14.7949-8.93555L29.1992-8.93555C29.541-1.61133 36.084 5.66406 46.1426 5.66406C56.2012 5.66406 62.7441-1.5625 63.0371-8.93555L77.4902-8.93555C82.373-8.93555 85.4492-11.8164 85.4492-16.1133C85.4492-20.6543 81.9824-24.2188 78.2227-27.4414C75.3418-29.8828 74.6582-34.4238 73.877-41.0156C72.998-54.8828 68.2129-64.6973 58.4473-68.2617C56.5918-73.5352 52.0508-77.1973 46.1426-77.1973C40.2344-77.1973 35.6934-73.5352 33.8379-68.2617C24.0723-64.6973 19.2871-54.8828 18.4082-41.0156C17.627-34.4238 16.9434-29.8828 14.0625-27.4414C10.3027-24.2188 6.83594-20.6543 6.83594-16.1133C6.83594-11.8164 9.91211-8.93555 14.7949-8.93555ZM19.873-18.75L19.873-19.1895C21.5332-20.1172 23.5352-21.6309 25.1465-23.6328C27.3438-26.3672 28.6133-32.5195 29.0527-39.209C29.6387-53.0273 34.1309-57.8613 39.502-59.2773C40.332-59.5215 40.8691-59.9121 40.9668-61.084C41.2598-64.7949 43.1641-66.9922 46.1426-66.9922C49.1211-66.9922 51.0254-64.7949 51.3184-61.084C51.416-59.9121 51.9043-59.5215 52.7832-59.2773C58.1543-57.8613 62.6465-53.0273 63.2324-39.209C63.623-32.5195 64.9902-26.3672 67.1387-23.6328C68.7012-21.6309 70.5078-20.1172 72.1191-19.1895L72.1191-18.75ZM46.1426-2.29492C42.3828-2.29492 39.5996-4.98047 39.3555-8.93555L52.9297-8.93555C52.7832-5.07812 50-2.29492 46.1426-2.29492Z"/>
  </g>
  <g id="Semibold-S" transform="matrix(1 0 0 1 1997.83 696)">
   <path d="M14.6484-9.17969L29.248-9.17969C29.4922-1.9043 35.8398 5.32227 45.4102 5.32227C54.9316 5.32227 61.2793-1.75781 61.6211-9.17969L76.2207-9.17969C80.8105-9.17969 83.6914-11.7676 83.6914-15.625C83.6914-19.9219 80.0293-23.4863 76.416-26.7578C73.7793-29.1016 72.998-33.6426 72.5098-39.0625C71.9238-53.8086 67.4316-63.7695 57.4219-67.5293C55.7129-72.6074 51.3184-76.4648 45.4102-76.4648C39.5508-76.4648 35.1074-72.6074 33.4473-67.5293C23.4375-63.7695 18.9453-53.8086 18.3594-39.0625C17.8223-33.6426 17.0898-29.1016 14.4531-26.7578C10.791-23.4863 7.17773-19.9219 7.17773-15.625C7.17773-11.7676 10.0098-9.17969 14.6484-9.17969ZM18.6035-17.8223L18.6035-18.2617C19.9219-19.1895 21.9727-20.8496 23.6816-22.9004C25.9277-25.5859 27.3438-30.8594 27.6367-37.7441C28.0273-53.1738 32.8613-58.1543 38.623-59.7168C39.502-59.9121 39.9902-60.3516 40.0391-61.4258C40.2344-65.2344 42.2852-67.627 45.4102-67.627C48.584-67.627 50.6348-65.2344 50.7812-61.4258C50.8789-60.3516 51.3672-59.9121 52.1973-59.7168C58.0078-58.1543 62.793-53.1738 63.1836-37.7441C63.4766-30.8594 64.9902-25.5859 67.1875-22.9004C68.8477-20.8496 70.752-19.1895 72.1191-18.2617L72.1191-17.8223ZM45.4102-2.00195C41.3574-2.00195 38.4277-4.83398 38.1348-9.17969L52.6855-9.17969C52.4902-4.88281 49.5117-2.00195 45.4102-2.00195Z"/>
  </g>
  <g id="Medium-S" transform="matrix(1 0 0 1 1701.66 696)">
   <path d="M14.502-9.375L29.248-9.375C29.541-2.00195 35.791 5.0293 44.873 5.0293C53.9551 5.0293 60.1562-1.9043 60.498-9.375L75.2441-9.375C79.6875-9.375 82.373-11.7188 82.373-15.2832C82.373-19.3359 78.5645-22.9004 75.0488-26.2207C72.6074-28.5156 71.7773-33.0566 71.4355-37.5977C71.0938-53.0273 66.8457-63.0859 56.6406-66.9434C55.0781-71.9727 50.7324-75.8789 44.873-75.8789C39.0137-75.8789 34.668-71.9727 33.1055-66.9434C22.9004-63.0859 18.7012-53.0273 18.3105-37.5977C18.0176-33.0566 17.1875-28.5156 14.7461-26.2207C11.2305-22.9004 7.42188-19.3359 7.42188-15.2832C7.42188-11.7188 10.1074-9.375 14.502-9.375ZM17.5781-17.1387L17.5781-17.5781C18.7012-18.457 20.8008-20.2637 22.5586-22.3633C24.8535-25.0488 26.416-29.6387 26.6113-36.6211C26.8555-53.2715 31.8848-58.3496 37.9883-60.0098C38.8184-60.2051 39.3066-60.6445 39.3555-61.6699C39.4531-65.5762 41.6016-68.1152 44.873-68.1152C48.1445-68.1152 50.293-65.5762 50.3906-61.6699C50.4883-60.6445 50.9277-60.2051 51.8066-60.0098C57.9102-58.3496 62.9395-53.2715 63.1836-36.6211C63.3789-29.6387 64.9414-25.0488 67.1875-22.3633C68.9941-20.2637 70.9473-18.457 72.0703-17.5781L72.0703-17.1387ZM44.873-1.75781C40.625-1.75781 37.5488-4.73633 37.2559-9.375L52.4902-9.375C52.2949-4.78516 49.1699-1.75781 44.873-1.75781Z"/>
  </g>
  <g id="Regular-S" transform="matrix(1 0 0 1 1405.66 696)">
   <path d="M14.3555-9.61914L52.2949-9.61914C52.002-4.58984 48.7305-1.41602 44.1895-1.41602C39.5996-1.41602 36.377-4.58984 36.084-9.61914L29.2969-9.61914C29.6387-2.14844 35.6934 4.6875 44.1895 4.6875C52.6367 4.6875 58.6914-2.09961 59.082-9.61914L74.0234-9.61914C78.1738-9.61914 80.6152-11.6699 80.6152-14.7949C80.6152-18.6035 76.6113-22.1191 73.2422-25.5371C71.0449-27.7344 70.166-32.2754 70.0684-35.6445C70.0195-51.9531 66.1133-62.1582 55.6641-66.1621C54.248-71.0449 50.0488-75.1465 44.1895-75.1465C38.3301-75.1465 34.1309-71.0449 32.7148-66.1621C22.2656-62.1582 18.3594-51.9531 18.2617-35.6445C18.2129-32.2754 17.2852-27.7344 15.1367-25.5371C11.7188-22.1191 7.76367-18.6035 7.76367-14.7949C7.76367-11.6699 10.2051-9.61914 14.3555-9.61914ZM16.3086-16.2109L16.3086-16.6504C17.1387-17.5293 19.2383-19.4824 21.1426-21.6797C23.4375-24.2676 25.1465-28.0273 25.2441-35.1562C25.293-53.418 30.6152-58.6426 37.1094-60.4004C37.9883-60.5957 38.4277-61.084 38.4277-62.0117C38.4766-66.0156 40.7227-68.75 44.1895-68.75C47.6074-68.75 49.9023-66.0156 49.9023-62.0117C49.9023-61.084 50.3906-60.5957 51.2207-60.4004C57.7637-58.6426 63.0859-53.418 63.1348-35.1562C63.2324-28.0273 64.9414-24.2676 67.2363-21.6797C69.1406-19.4824 71.2402-17.5293 72.0703-16.6504L72.0703-16.2109Z"/>
  </g>
  <g id="Light-S" transform="matrix(1 0 0 1 1108.92 696)">
   <path d="M13.4766-9.86328L52.5391-9.86328C52.2461-4.54102 48.877-1.17188 44.2383-1.17188C39.5508-1.17188 36.1816-4.54102 35.8887-9.86328L30.6152-9.86328C30.9082-2.58789 36.4258 3.56445 44.2383 3.56445C52.002 3.56445 57.5195-2.58789 57.8125-9.86328L74.9512-9.86328C78.125-9.86328 80.0293-11.5234 80.0293-14.0137C80.0293-17.8711 76.2207-21.2402 72.9492-24.6582C70.166-27.6855 69.6289-33.8379 69.1895-39.0625C68.7012-53.125 64.8438-62.4512 54.9316-65.8691C53.7109-70.8984 49.707-74.8047 44.2383-74.8047C38.7207-74.8047 34.7168-70.8984 33.5449-65.8691C23.584-62.4512 19.7266-53.125 19.2383-39.0625C18.7988-33.8379 18.2617-27.6855 15.4785-24.6582C12.207-21.2402 8.39844-17.8711 8.39844-14.0137C8.39844-11.5234 10.3027-9.86328 13.4766-9.86328ZM14.9414-14.9414L14.9414-15.4297C15.4785-16.748 17.9199-19.2383 20.0195-21.5332C23.1445-24.9512 24.0723-30.8105 24.6094-38.5742C25.1465-54.0039 29.7852-59.4238 36.4258-61.2305C37.4512-61.4746 38.0371-61.9629 38.0859-62.9883C38.3301-66.9434 40.5762-69.7754 44.2383-69.7754C47.8516-69.7754 50.0977-66.9434 50.3418-62.9883C50.3906-61.9629 50.9766-61.4746 52.002-61.2305C58.6426-59.4238 63.2812-54.0039 63.8184-38.5742C64.3555-30.8105 65.2832-24.9512 68.4082-21.5332C70.5078-19.2383 72.9492-16.748 73.4863-15.4297L73.4863-14.9414Z"/>
  </g>
  <g id="Thin-S" transform="matrix(1 0 0 1 812.16 696)">
   <path d="M12.4023-10.1562L52.8809-10.1562C52.5879-4.54102 49.0723-0.878906 44.2383-0.878906C39.4531-0.878906 35.9375-4.54102 35.6445-10.1562L32.4219-10.1562C32.5684-3.22266 37.4023 2.09961 44.2383 2.09961C51.0742 2.09961 55.957-3.22266 56.1035-10.1562L76.123-10.1562C78.0762-10.1562 79.2969-11.2793 79.2969-12.9883C79.2969-16.8457 75.7324-20.1172 72.6074-23.4863C68.9453-27.5879 68.9941-35.8887 68.0176-43.5547C66.9922-54.6387 63.1836-62.8418 53.9062-65.4785C53.0273-70.752 49.2676-74.3164 44.2383-74.3164C39.2578-74.3164 35.498-70.752 34.6191-65.4785C25.3418-62.8418 21.5332-54.6387 20.5078-43.5547C19.5312-35.8887 19.5801-27.5879 15.8691-23.4863C12.793-20.1172 9.22852-16.8457 9.22852-12.9883C9.22852-11.2793 10.4492-10.1562 12.4023-10.1562ZM13.1348-13.3301L13.1348-13.7695C13.3301-15.7227 16.2109-18.8965 18.5547-21.3867C22.7539-25.8301 22.7051-34.5215 23.7793-43.1152C24.9512-54.7852 28.7598-60.4492 35.498-62.3047C36.7676-62.6465 37.5-63.1348 37.6465-64.3066C38.0859-68.1641 40.3809-71.1914 44.2383-71.1914C48.0957-71.1914 50.4395-68.1641 50.8789-64.3066C51.0254-63.1348 51.7578-62.6465 53.0273-62.3047C59.7656-60.4492 63.5742-54.7852 64.6973-43.1152C65.8203-34.5215 65.7715-25.8301 69.9707-21.3867C72.3145-18.8965 75.1953-15.7227 75.3906-13.7695L75.3906-13.3301Z"/>
  </g>
  <g id="Ultralight-S" transform="matrix(1 0 0 1 515.424 696)">
   <path d="M11.8164-10.3027L53.0273-10.3027C52.7344-4.49219 49.1699-0.732422 44.2871-0.732422C39.4043-0.732422 35.8398-4.49219 35.5469-10.3027L33.3496-10.3027C33.4473-3.56445 37.9395 1.36719 44.2871 1.36719C50.6348 1.36719 55.127-3.51562 55.2246-10.3027L76.7578-10.3027C78.0273-10.3027 78.9062-11.1816 78.9062-12.4512C78.9062-16.3086 75.4395-19.5312 72.4609-22.9004C68.3105-27.5391 68.6523-36.9629 67.3828-45.8496C66.1133-55.4199 62.3047-63.0371 53.418-65.2832C52.6855-70.6055 49.0234-74.0723 44.2871-74.0723C39.5508-74.0723 35.8887-70.6055 35.1562-65.2832C26.2695-63.0371 22.4609-55.4199 21.1914-45.8496C19.9219-36.9629 20.2637-27.5391 16.1133-22.9004C13.1348-19.5312 9.66797-16.3086 9.66797-12.4512C9.66797-11.1816 10.5469-10.3027 11.8164-10.3027ZM12.1582-12.5L12.1582-12.8906C12.207-15.1855 15.2832-18.7012 17.8223-21.2891C22.5586-26.2695 21.9727-36.4258 23.3887-45.4102C24.8535-55.1758 28.2227-60.9863 35.0098-62.8418C36.4258-63.2324 37.207-63.7207 37.4023-64.9902C37.9883-68.7988 40.332-71.9238 44.2871-71.9238C48.2422-71.9238 50.5859-68.7988 51.1719-64.9902C51.3672-63.7207 52.1484-63.2324 53.5645-62.8418C60.3516-60.9863 63.7207-55.1758 65.1855-45.4102C66.6016-36.4258 66.0156-26.2695 70.752-21.2891C73.291-18.7012 76.3672-15.1855 76.3672-12.8906L76.3672-12.5Z"/>
  </g>
 </g>
</svg>
