<?xml version="1.0" encoding="UTF-8"?>
<!--Generator: Apple Native CoreSVG 175-->
<!DOCTYPE svg
PUBLIC "-//W3C//DTD SVG 1.1//EN"
       "http://www.w3.org/Graphics/SVG/1.1/DTD/svg11.dtd">
<svg version="1.1" xmlns="http://www.w3.org/2000/svg" xmlns:xlink="http://www.w3.org/1999/xlink" width="3300" height="2200">
 <!--glyph: "uni100C0C.medium", point size: 100.0, font version: "17.1d1e1", template writer version: "65.1"-->
 <g id="Notes">
  <rect height="2200" id="artboard" style="fill:white;opacity:1" width="3300" x="0" y="0"/>
  <line style="fill:none;stroke:black;opacity:1;stroke-width:0.5;" x1="263" x2="3036" y1="292" y2="292"/>
  <text style="stroke:none;fill:black;font-family:sans-serif;font-size:13;font-weight:bold;" transform="matrix(1 0 0 1 263 322)">Weight/Scale Variations</text>
  <text style="stroke:none;fill:black;font-family:sans-serif;font-size:13;text-anchor:middle;" transform="matrix(1 0 0 1 559.711 322)">Ultralight</text>
  <text style="stroke:none;fill:black;font-family:sans-serif;font-size:13;text-anchor:middle;" transform="matrix(1 0 0 1 856.422 322)">Thin</text>
  <text style="stroke:none;fill:black;font-family:sans-serif;font-size:13;text-anchor:middle;" transform="matrix(1 0 0 1 1153.13 322)">Light</text>
  <text style="stroke:none;fill:black;font-family:sans-serif;font-size:13;text-anchor:middle;" transform="matrix(1 0 0 1 1449.84 322)">Regular</text>
  <text style="stroke:none;fill:black;font-family:sans-serif;font-size:13;text-anchor:middle;" transform="matrix(1 0 0 1 1746.56 322)">Medium</text>
  <text style="stroke:none;fill:black;font-family:sans-serif;font-size:13;text-anchor:middle;" transform="matrix(1 0 0 1 2043.27 322)">Semibold</text>
  <text style="stroke:none;fill:black;font-family:sans-serif;font-size:13;text-anchor:middle;" transform="matrix(1 0 0 1 2339.98 322)">Bold</text>
  <text style="stroke:none;fill:black;font-family:sans-serif;font-size:13;text-anchor:middle;" transform="matrix(1 0 0 1 2636.69 322)">Heavy</text>
  <text style="stroke:none;fill:black;font-family:sans-serif;font-size:13;text-anchor:middle;" transform="matrix(1 0 0 1 2933.4 322)">Black</text>
  <line style="fill:none;stroke:black;opacity:1;stroke-width:0.5;" x1="263" x2="3036" y1="1903" y2="1903"/>
  <g transform="matrix(1 0 0 1 263 1933)">
   <path d="M9.24805 0.830078Q10.8691 0.830078 12.2949 0.214844Q13.7207-0.400391 14.8096-1.49414Q15.8984-2.58789 16.5186-4.01367Q17.1387-5.43945 17.1387-7.05078Q17.1387-8.66211 16.5186-10.0879Q15.8984-11.5137 14.8047-12.6074Q13.7109-13.7012 12.2852-14.3164Q10.8594-14.9316 9.23828-14.9316Q7.62695-14.9316 6.20117-14.3164Q4.77539-13.7012 3.69141-12.6074Q2.60742-11.5137 1.9873-10.0879Q1.36719-8.66211 1.36719-7.05078Q1.36719-5.43945 1.9873-4.01367Q2.60742-2.58789 3.69629-1.49414Q4.78516-0.400391 6.21094 0.214844Q7.63672 0.830078 9.24805 0.830078ZM9.24805-0.654297Q7.91992-0.654297 6.7627-1.14746Q5.60547-1.64062 4.73145-2.51953Q3.85742-3.39844 3.36426-4.56055Q2.87109-5.72266 2.87109-7.05078Q2.87109-8.37891 3.35938-9.54102Q3.84766-10.7031 4.72168-11.582Q5.5957-12.4609 6.75293-12.9541Q7.91016-13.4473 9.23828-13.4473Q10.5762-13.4473 11.7334-12.9541Q12.8906-12.4609 13.7695-11.582Q14.6484-10.7031 15.1465-9.54102Q15.6445-8.37891 15.6445-7.05078Q15.6445-5.72266 15.1514-4.56055Q14.6582-3.39844 13.7842-2.51953Q12.9102-1.64062 11.748-1.14746Q10.5859-0.654297 9.24805-0.654297ZM5.6543-7.05078Q5.6543-6.72852 5.85938-6.52832Q6.06445-6.32812 6.40625-6.32812L8.51562-6.32812L8.51562-4.20898Q8.51562-3.88672 8.71094-3.67676Q8.90625-3.4668 9.23828-3.4668Q9.56055-3.4668 9.77051-3.67676Q9.98047-3.88672 9.98047-4.20898L9.98047-6.32812L12.0898-6.32812Q12.4219-6.32812 12.627-6.52832Q12.832-6.72852 12.832-7.05078Q12.832-7.38281 12.627-7.58789Q12.4219-7.79297 12.0898-7.79297L9.98047-7.79297L9.98047-9.90234Q9.98047-10.2344 9.77051-10.4443Q9.56055-10.6543 9.23828-10.6543Q8.90625-10.6543 8.71094-10.4443Q8.51562-10.2344 8.51562-9.90234L8.51562-7.79297L6.40625-7.79297Q6.06445-7.79297 5.85938-7.58789Q5.6543-7.38281 5.6543-7.05078Z"/>
  </g>
  <g transform="matrix(1 0 0 1 281.867 1933)">
   <path d="M11.709 2.91016Q13.75 2.91016 15.5518 2.12891Q17.3535 1.34766 18.7305-0.0292969Q20.1074-1.40625 20.8887-3.20801Q21.6699-5.00977 21.6699-7.05078Q21.6699-9.0918 20.8887-10.8936Q20.1074-12.6953 18.7305-14.0723Q17.3535-15.4492 15.5469-16.2305Q13.7402-17.0117 11.6992-17.0117Q9.6582-17.0117 7.85645-16.2305Q6.05469-15.4492 4.68262-14.0723Q3.31055-12.6953 2.5293-10.8936Q1.74805-9.0918 1.74805-7.05078Q1.74805-5.00977 2.5293-3.20801Q3.31055-1.40625 4.6875-0.0292969Q6.06445 1.34766 7.86621 2.12891Q9.66797 2.91016 11.709 2.91016ZM11.709 1.25Q9.98047 1.25 8.47656 0.605469Q6.97266-0.0390625 5.83496-1.17676Q4.69727-2.31445 4.05762-3.81836Q3.41797-5.32227 3.41797-7.05078Q3.41797-8.7793 4.05762-10.2832Q4.69727-11.7871 5.83008-12.9297Q6.96289-14.0723 8.4668-14.7119Q9.9707-15.3516 11.6992-15.3516Q13.4277-15.3516 14.9316-14.7119Q16.4355-14.0723 17.5781-12.9297Q18.7207-11.7871 19.3652-10.2832Q20.0098-8.7793 20.0098-7.05078Q20.0098-5.32227 19.3701-3.81836Q18.7305-2.31445 17.5928-1.17676Q16.4551-0.0390625 14.9463 0.605469Q13.4375 1.25 11.709 1.25ZM7.17773-7.05078Q7.17773-6.69922 7.41211-6.47461Q7.64648-6.25 8.01758-6.25L10.8887-6.25L10.8887-3.36914Q10.8887-2.99805 11.1133-2.76855Q11.3379-2.53906 11.6895-2.53906Q12.0605-2.53906 12.29-2.76855Q12.5195-2.99805 12.5195-3.36914L12.5195-6.25L15.4004-6.25Q15.7715-6.25 16.001-6.47461Q16.2305-6.69922 16.2305-7.05078Q16.2305-7.42188 16.001-7.65137Q15.7715-7.88086 15.4004-7.88086L12.5195-7.88086L12.5195-10.752Q12.5195-11.1328 12.29-11.3623Q12.0605-11.5918 11.6895-11.5918Q11.3379-11.5918 11.1133-11.3574Q10.8887-11.123 10.8887-10.752L10.8887-7.88086L8.01758-7.88086Q7.63672-7.88086 7.40723-7.65137Q7.17773-7.42188 7.17773-7.05078Z"/>
  </g>
  <g transform="matrix(1 0 0 1 305.646 1933)">
   <path d="M14.9707 5.66406Q17.0605 5.66406 18.96 5.01465Q20.8594 4.36523 22.4512 3.19336Q24.043 2.02148 25.2197 0.429688Q26.3965-1.16211 27.0459-3.06641Q27.6953-4.9707 27.6953-7.05078Q27.6953-9.14062 27.0459-11.04Q26.3965-12.9395 25.2197-14.5312Q24.043-16.123 22.4512-17.2998Q20.8594-18.4766 18.9551-19.126Q17.0508-19.7754 14.9609-19.7754Q12.8711-19.7754 10.9717-19.126Q9.07227-18.4766 7.48535-17.2998Q5.89844-16.123 4.72168-14.5312Q3.54492-12.9395 2.90039-11.04Q2.25586-9.14062 2.25586-7.05078Q2.25586-4.9707 2.90527-3.06641Q3.55469-1.16211 4.72656 0.429688Q5.89844 2.02148 7.49023 3.19336Q9.08203 4.36523 10.9814 5.01465Q12.8809 5.66406 14.9707 5.66406ZM14.9707 3.84766Q13.1641 3.84766 11.5283 3.2959Q9.89258 2.74414 8.53516 1.74805Q7.17773 0.751953 6.17676-0.610352Q5.17578-1.97266 4.62891-3.6084Q4.08203-5.24414 4.08203-7.05078Q4.08203-8.86719 4.62891-10.5029Q5.17578-12.1387 6.17188-13.501Q7.16797-14.8633 8.52539-15.8594Q9.88281-16.8555 11.5186-17.4023Q13.1543-17.9492 14.9609-17.9492Q16.7773-17.9492 18.4131-17.4023Q20.0488-16.8555 21.4111-15.8594Q22.7734-14.8633 23.7695-13.501Q24.7656-12.1387 25.3174-10.5029Q25.8691-8.86719 25.8691-7.05078Q25.8789-5.24414 25.332-3.6084Q24.7852-1.97266 23.7842-0.610352Q22.7832 0.751953 21.4209 1.74805Q20.0586 2.74414 18.4229 3.2959Q16.7871 3.84766 14.9707 3.84766ZM9.19922-7.05078Q9.19922-6.66992 9.45801-6.4209Q9.7168-6.17188 10.1172-6.17188L14.0625-6.17188L14.0625-2.2168Q14.0625-1.81641 14.3115-1.55762Q14.5605-1.29883 14.9512-1.29883Q15.3516-1.29883 15.6104-1.55273Q15.8691-1.80664 15.8691-2.2168L15.8691-6.17188L19.8242-6.17188Q20.2246-6.17188 20.4785-6.4209Q20.7324-6.66992 20.7324-7.05078Q20.7324-7.46094 20.4785-7.71484Q20.2246-7.96875 19.8242-7.96875L15.8691-7.96875L15.8691-11.9141Q15.8691-12.3242 15.6104-12.583Q15.3516-12.8418 14.9512-12.8418Q14.5605-12.8418 14.3115-12.583Q14.0625-12.3242 14.0625-11.9141L14.0625-7.96875L10.1172-7.96875Q9.70703-7.96875 9.45312-7.71484Q9.19922-7.46094 9.19922-7.05078Z"/>
  </g>
  <text style="stroke:none;fill:black;font-family:sans-serif;font-size:13;font-weight:bold;" transform="matrix(1 0 0 1 263 1953)">Design Variations</text>
  <text style="stroke:none;fill:black;font-family:sans-serif;font-size:13;" transform="matrix(1 0 0 1 263 1971)">Symbols are supported in up to nine weights and three scales.</text>
  <text style="stroke:none;fill:black;font-family:sans-serif;font-size:13;" transform="matrix(1 0 0 1 263 1989)">For optimal layout with text and other symbols, vertically align</text>
  <text style="stroke:none;fill:black;font-family:sans-serif;font-size:13;" transform="matrix(1 0 0 1 263 2007)">symbols with the adjacent text.</text>
  <line style="fill:none;stroke:#00AEEF;stroke-width:0.5;opacity:1.0;" x1="776" x2="776" y1="1919" y2="1933"/>
  <g transform="matrix(1 0 0 1 776 1933)">
   <path d="M3.31055 0.15625Q3.70117 0.15625 3.91602-0.00976562Q4.13086-0.175781 4.26758-0.585938L5.52734-4.0332L11.2891-4.0332L12.5488-0.585938Q12.6855-0.175781 12.9004-0.00976562Q13.1152 0.15625 13.4961 0.15625Q13.8867 0.15625 14.1162-0.0585938Q14.3457-0.273438 14.3457-0.644531Q14.3457-0.869141 14.2383-1.17188L9.6582-13.3691Q9.48242-13.8184 9.17969-14.043Q8.87695-14.2676 8.4082-14.2676Q7.5-14.2676 7.17773-13.3789L2.59766-1.16211Q2.49023-0.859375 2.49023-0.634766Q2.49023-0.263672 2.70996-0.0537109Q2.92969 0.15625 3.31055 0.15625ZM6.00586-5.51758L8.37891-12.0898L8.42773-12.0898L10.8008-5.51758Z"/>
  </g>
  <line style="fill:none;stroke:#00AEEF;stroke-width:0.5;opacity:1.0;" x1="793.197" x2="793.197" y1="1919" y2="1933"/>
  <text style="stroke:none;fill:black;font-family:sans-serif;font-size:13;font-weight:bold;" transform="matrix(1 0 0 1 776 1953)">Margins</text>
  <text style="stroke:none;fill:black;font-family:sans-serif;font-size:13;" transform="matrix(1 0 0 1 776 1971)">Leading and trailing margins on the left and right side of each symbol</text>
  <text style="stroke:none;fill:black;font-family:sans-serif;font-size:13;" transform="matrix(1 0 0 1 776 1989)">can be adjusted by modifying the x-location of the margin guidelines.</text>
  <text style="stroke:none;fill:black;font-family:sans-serif;font-size:13;" transform="matrix(1 0 0 1 776 2007)">Modifications are automatically applied proportionally to all</text>
  <text style="stroke:none;fill:black;font-family:sans-serif;font-size:13;" transform="matrix(1 0 0 1 776 2025)">scales and weights.</text>
  <g transform="matrix(1 0 0 1 1289 1933)">
   <path d="M2.8418 1.86523L4.54102 3.57422Q5.18555 4.22852 5.90332 4.17969Q6.62109 4.13086 7.31445 3.35938L18.0078-8.42773L17.041-9.4043L6.42578 2.27539Q6.16211 2.57812 5.89355 2.61719Q5.625 2.65625 5.27344 2.30469L4.10156 1.14258Q3.75 0.791016 3.79395 0.522461Q3.83789 0.253906 4.14062-0.0195312L15.6152-10.8203L14.6387-11.7871L3.04688-0.898438Q2.30469-0.214844 2.25098 0.498047Q2.19727 1.21094 2.8418 1.86523ZM9.25781-16.3281Q8.94531-16.0254 8.90625-15.6348Q8.86719-15.2441 9.04297-14.9512Q9.21875-14.6777 9.55566-14.541Q9.89258-14.4043 10.3809-14.5215Q11.4746-14.7754 12.5977-14.7314Q13.7207-14.6875 14.7949-13.9844L14.209-12.5293Q13.9551-11.9043 14.0674-11.4404Q14.1797-10.9766 14.5801-10.5664L16.875-8.25195Q17.2363-7.88086 17.5781-7.82227Q17.9199-7.76367 18.3398-7.8418L19.4043-8.03711L20.0684-7.36328L20.0293-6.80664Q20-6.43555 20.1221-6.12305Q20.2441-5.81055 20.6055-5.44922L21.3672-4.70703Q21.7285-4.3457 22.1533-4.33105Q22.5781-4.31641 22.9297-4.66797L25.8398-7.58789Q26.1914-7.93945 26.1816-8.35449Q26.1719-8.76953 25.8105-9.13086L25.0391-9.89258Q24.6875-10.2539 24.3799-10.3857Q24.0723-10.5176 23.7109-10.4883L23.1348-10.4395L22.4902-11.0742L22.7344-12.1973Q22.832-12.6172 22.6953-12.9834Q22.5586-13.3496 22.1191-13.7891L19.9219-15.9766Q18.6719-17.2168 17.2607-17.8369Q15.8496-18.457 14.4189-18.4814Q12.9883-18.5059 11.665-17.959Q10.3418-17.4121 9.25781-16.3281ZM10.752-15.957Q11.6602-16.6211 12.7002-16.9043Q13.7402-17.1875 14.8047-17.085Q15.8691-16.9824 16.8701-16.5137Q17.8711-16.0449 18.7012-15.2051L21.1328-12.793Q21.3086-12.6172 21.3525-12.4512Q21.3965-12.2852 21.3379-12.0312L21.0156-10.5469L22.5195-9.0625L23.5059-9.12109Q23.6914-9.13086 23.7891-9.09668Q23.8867-9.0625 24.0332-8.91602L24.6094-8.33984L22.168-5.89844L21.5918-6.47461Q21.4453-6.62109 21.4062-6.71875Q21.3672-6.81641 21.377-7.01172L21.4453-7.98828L19.9512-9.47266L18.4277-9.21875Q18.1836-9.16992 18.042-9.2041Q17.9004-9.23828 17.7148-9.41406L15.7129-11.416Q15.5176-11.5918 15.4932-11.7529Q15.4688-11.9141 15.5859-12.1875L16.4648-14.2773Q15.293-15.3711 13.8281-15.791Q12.3633-16.2109 10.8398-15.7617Q10.7227-15.7324 10.6885-15.8057Q10.6543-15.8789 10.752-15.957Z"/>
  </g>
  <text style="stroke:none;fill:black;font-family:sans-serif;font-size:13;font-weight:bold;" transform="matrix(1 0 0 1 1289 1953)">Exporting</text>
  <text style="stroke:none;fill:black;font-family:sans-serif;font-size:13;" transform="matrix(1 0 0 1 1289 1971)">Symbols should be outlined when exporting to ensure the</text>
  <text style="stroke:none;fill:black;font-family:sans-serif;font-size:13;" transform="matrix(1 0 0 1 1289 1989)">design is preserved when submitting to Xcode.</text>
  <text id="template-version" style="stroke:none;fill:black;font-family:sans-serif;font-size:13;text-anchor:end;" transform="matrix(1 0 0 1 3036 1933)">Template v.3.0</text>
  <text style="stroke:none;fill:black;font-family:sans-serif;font-size:13;text-anchor:end;" transform="matrix(1 0 0 1 3036 1951)">Requires Xcode 13 or greater</text>
  <text id="descriptive-name" style="stroke:none;fill:black;font-family:sans-serif;font-size:13;text-anchor:end;" transform="matrix(1 0 0 1 3036 1969)">Generated from arrow.backward</text>
  <text style="stroke:none;fill:black;font-family:sans-serif;font-size:13;text-anchor:end;" transform="matrix(1 0 0 1 3036 1987)">Typeset at 100 points</text>
  <text style="stroke:none;fill:black;font-family:sans-serif;font-size:13;" transform="matrix(1 0 0 1 263 726)">Small</text>
  <text style="stroke:none;fill:black;font-family:sans-serif;font-size:13;" transform="matrix(1 0 0 1 263 1156)">Medium</text>
  <text style="stroke:none;fill:black;font-family:sans-serif;font-size:13;" transform="matrix(1 0 0 1 263 1586)">Large</text>
 </g>
 <g id="Guides">
  <g id="H-reference" style="fill:#27AAE1;stroke:none;" transform="matrix(1 0 0 1 339 696)">
   <path d="M0.993347 0L3.6377 0L29.3282-67.1326L30.0301-67.1326L30.0301-70.459L28.1227-70.459ZM11.6882-24.4797L46.9818-24.4797L46.2311-26.7288L12.4382-26.7288ZM55.1193 0L57.7637 0L30.6381-70.459L29.4327-70.459L29.4327-67.1326Z"/>
  </g>
  <line id="Baseline-S" style="fill:none;stroke:#27AAE1;opacity:1;stroke-width:0.5;" x1="263" x2="3036" y1="696" y2="696"/>
  <line id="Capline-S" style="fill:none;stroke:#27AAE1;opacity:1;stroke-width:0.5;" x1="263" x2="3036" y1="625.541" y2="625.541"/>
  <g id="H-reference" style="fill:#27AAE1;stroke:none;" transform="matrix(1 0 0 1 339 1126)">
   <path d="M0.993347 0L3.6377 0L29.3282-67.1326L30.0301-67.1326L30.0301-70.459L28.1227-70.459ZM11.6882-24.4797L46.9818-24.4797L46.2311-26.7288L12.4382-26.7288ZM55.1193 0L57.7637 0L30.6381-70.459L29.4327-70.459L29.4327-67.1326Z"/>
  </g>
  <line id="Baseline-M" style="fill:none;stroke:#27AAE1;opacity:1;stroke-width:0.5;" x1="263" x2="3036" y1="1126" y2="1126"/>
  <line id="Capline-M" style="fill:none;stroke:#27AAE1;opacity:1;stroke-width:0.5;" x1="263" x2="3036" y1="1055.54" y2="1055.54"/>
  <g id="H-reference" style="fill:#27AAE1;stroke:none;" transform="matrix(1 0 0 1 339 1556)">
   <path d="M0.993347 0L3.6377 0L29.3282-67.1326L30.0301-67.1326L30.0301-70.459L28.1227-70.459ZM11.6882-24.4797L46.9818-24.4797L46.2311-26.7288L12.4382-26.7288ZM55.1193 0L57.7637 0L30.6381-70.459L29.4327-70.459L29.4327-67.1326Z"/>
  </g>
  <line id="Baseline-L" style="fill:none;stroke:#27AAE1;opacity:1;stroke-width:0.5;" x1="263" x2="3036" y1="1556" y2="1556"/>
  <line id="Capline-L" style="fill:none;stroke:#27AAE1;opacity:1;stroke-width:0.5;" x1="263" x2="3036" y1="1485.54" y2="1485.54"/>
  <line id="left-margin-Regular-M" style="fill:none;stroke:#00AEEF;stroke-width:0.5;opacity:1.0;" x1="1392.06" x2="1392.06" y1="1030.79" y2="1150.12"/>
  <line id="right-margin-Regular-M" style="fill:none;stroke:#00AEEF;stroke-width:0.5;opacity:1.0;" x1="1507.63" x2="1507.63" y1="1030.79" y2="1150.12"/>
 </g>
 <g id="Symbols">
  <g id="Black-L" transform="matrix(1 0 0 1 2854.31 1556)">
   <path d="M16.084-35.5617Q16.084-30.5818 19.4197-27.2887L59.9531 13.1719Q63.4797 16.6778 67.7381 16.6778Q72.7583 16.6778 75.8023 13.6137Q78.8463 10.5496 78.8463 6.03821Q78.8463 3.421 77.7958 1.44036Q76.7454-0.540274 75.1702-2.03763L61.3593-15.7756L42.7186-32.9485L37.3136-25.6665L64.3949-24.2759L130.24-24.2759Q135.612-24.2759 138.851-27.3886Q142.09-30.5013 142.09-35.5617Q142.09-40.6221 138.851-43.7349Q135.612-46.8476 130.24-46.8476L64.3949-46.8476L37.3136-45.457L42.7186-38.1543L61.3593-55.3478L75.1702-69.1442Q76.7467-70.7 77.7965-72.6514Q78.8463-74.6029 78.8463-77.2201Q78.8463-81.7315 75.8023-84.7956Q72.7583-87.8597 67.7381-87.8597Q63.4759-87.8597 59.9415-84.3435L19.4197-43.8347Q16.084-40.5417 16.084-35.5617Z"/>
  </g>
  <g id="Heavy-L" transform="matrix(1 0 0 1 2558.66 1556)">
   <path d="M16.084-35.4928Q16.084-31.1691 19.0629-28.2558L59.9398 12.5769Q63.0316 15.6389 66.79 15.6389Q71.1406 15.6389 73.8099 12.9562Q76.4791 10.2735 76.4791 6.31284Q76.4791 4.06016 75.5924 2.31784Q74.7057 0.575529 73.3339-0.727929L59.1426-14.9281L39.229-33.2317L34.8135-26.9734L60.1882-25.6312L129.689-25.6312Q134.34-25.6312 137.153-28.36Q139.967-31.0887 139.967-35.4928Q139.967-39.8969 137.153-42.6257Q134.34-45.3544 129.689-45.3544L60.1882-45.3544L34.8135-44.0122L39.229-37.7242L59.1426-56.0575L73.3339-70.3023Q74.7118-71.6504 75.5954-73.3704Q76.4791-75.0904 76.4791-77.3431Q76.4791-81.3038 73.8099-83.9865Q71.1406-86.6692 66.79-86.6692Q63.0135-86.6692 59.8855-83.5588L19.0629-42.7298Q16.084-39.8165 16.084-35.4928Z"/>
  </g>
  <g id="Bold-L" transform="matrix(1 0 0 1 2263.14 1556)">
   <path d="M16.084-35.4157Q16.084-31.8982 18.6061-29.4643L59.9335 11.8681Q62.4842 14.3818 65.6143 14.3818Q69.1526 14.3818 71.3551 12.1689Q73.5577 9.95596 73.5577 6.68626Q73.5577 4.87012 72.8657 3.42607Q72.1737 1.98201 71.0524 0.912729L55.8542-14.3685L34.9396-33.6032L31.6627-28.5591L54.9213-27.3172L129.239-27.3172Q133.005-27.3172 135.299-29.5675Q137.592-31.8177 137.592-35.4157Q137.592-39.0137 135.299-41.264Q133.005-43.5143 129.239-43.5143L54.9213-43.5143L31.6627-42.2723L34.9396-37.1913L55.8542-56.4629L71.0524-71.7734Q72.1879-72.8719 72.8728-74.3013Q73.5577-75.7308 73.5577-77.5469Q73.5577-80.8166 71.3551-83.0295Q69.1526-85.2424 65.6143-85.2424Q62.4415-85.2424 59.8055-82.6149L18.6061-41.3672Q16.084-38.9333 16.084-35.4157Z"/>
  </g>
  <g id="Semibold-L" transform="matrix(1 0 0 1 1967.25 1556)">
   <path d="M16.084-35.3626Q16.084-32.4007 18.2912-30.2974L59.9292 11.3794Q62.1069 13.5151 64.8038 13.5151Q67.782 13.5151 69.6629 11.6261Q71.5437 9.73705 71.5437 6.94369Q71.5437 5.42851 70.9859 4.19007Q70.4281 2.95163 69.4795 2.04379L53.5872-13.9828L31.9826-33.8593L29.4906-29.6523L51.2903-28.4795L128.928-28.4795Q132.086-28.4795 134.02-30.3999Q135.955-32.3203 135.955-35.3626Q135.955-38.4048 134.02-40.3252Q132.086-42.2457 128.928-42.2457L51.2903-42.2457L29.4906-41.0728L31.9826-36.8239L53.5872-56.7423L69.4795-72.7875Q70.4479-73.7139 70.9958-74.9431Q71.5437-76.1722 71.5437-77.6874Q71.5437-80.4808 69.6629-82.3698Q67.782-84.2589 64.8038-84.2589Q62.0472-84.2589 59.7503-81.9642L18.2912-40.4278Q16.084-38.3244 16.084-35.3626Z"/>
  </g>
  <g id="Medium-L" transform="matrix(1 0 0 1 1671.16 1556)">
   <path d="M16.084-35.3223Q16.084-32.7818 18.0524-30.9291L59.9259 11.0089Q61.8207 12.858 64.1893 12.858Q66.7428 12.858 68.3797 11.2145Q70.0166 9.57106 70.0166 7.13888Q70.0166 5.8519 69.5606 4.76937Q69.1045 3.68684 68.2869 2.90141L51.8683-13.6903L29.7404-34.0535L27.8437-30.4812L48.5371-29.3608L128.693-29.3608Q131.388-29.3608 133.051-31.0311Q134.714-32.7014 134.714-35.3223Q134.714-37.9431 133.051-39.6135Q131.388-41.2838 128.693-41.2838L48.5371-41.2838L27.8437-40.1633L29.7404-36.5453L51.8683-56.9542L68.2869-73.5565Q69.1286-74.3524 69.5726-75.4297Q70.0166-76.507 70.0166-77.7939Q70.0166-80.2261 68.3797-81.8696Q66.7428-83.5131 64.1893-83.5131Q61.7483-83.5131 59.7085-81.4708L18.0524-39.7155Q16.084-37.8627 16.084-35.3223Z"/>
  </g>
  <g id="Regular-L" transform="matrix(1 0 0 1 1375.25 1556)">
   <path d="M16.084-35.2697Q16.084-33.2789 17.741-31.753L59.9216 10.5257Q61.4475 12.0009 63.3877 12.0009Q65.3873 12.0009 66.706 10.6777Q68.0248 9.35456 68.0248 7.39348Q68.0248 6.40415 67.7014 5.52498Q67.3781 4.6458 66.7314 4.02004L49.6262-13.3088L26.8159-34.3068L25.6954-31.5624L44.9459-30.5103L128.386-30.5103Q130.478-30.5103 131.787-31.8544Q133.095-33.1985 133.095-35.2697Q133.095-37.3409 131.787-38.685Q130.478-40.0291 128.386-40.0291L44.9459-40.0291L25.6954-38.977L26.8159-36.182L49.6262-57.2306L66.7314-74.5594Q67.4078-75.1852 67.7163-76.0644Q68.0248-76.9436 68.0248-77.9329Q68.0248-79.894 66.706-81.2171Q65.3873-82.5403 63.3877-82.5403Q61.3583-82.5403 59.654-80.8272L17.741-38.7864Q16.084-37.2605 16.084-35.2697Z"/>
  </g>
  <g id="Light-L" transform="matrix(1 0 0 1 1078.54 1556)">
   <path d="M16.084-35.2697Q16.084-33.7919 17.3305-32.656L59.9832 10.2178Q61.1192 11.3237 62.5668 11.3237Q64.1149 11.3237 65.095 10.3083Q66.0752 9.29299 66.0752 7.86549Q66.0752 7.08138 65.8339 6.42794Q65.5927 5.77451 65.1101 5.27188L43.8595-16.0792L24.0659-34.6967L23.1712-32.4449L40.9442-31.7211L129.576-31.7211Q131.115-31.7211 132.105-32.7163Q133.095-33.7115 133.095-35.2697Q133.095-36.8279 132.105-37.8231Q131.115-38.8183 129.576-38.8183L40.9442-38.8183L23.1712-38.0945L24.0659-35.8126L43.8595-54.4602L65.1101-75.8113Q65.6429-76.3139 65.8591-76.9673Q66.0752-77.6208 66.0752-78.4049Q66.0752-79.8324 65.095-80.8477Q64.1149-81.8631 62.5668-81.8631Q60.9684-81.8631 59.5309-80.3552L17.3305-37.8834Q16.084-36.7475 16.084-35.2697Z"/>
  </g>
  <g id="Thin-L" transform="matrix(1 0 0 1 781.833 1556)">
   <path d="M16.084-35.2697Q16.084-34.4705 16.7877-33.8502L60.0646 9.81072Q60.6849 10.428 61.4811 10.428Q62.4321 10.428 62.9644 9.81977Q63.4967 9.21157 63.4967 8.48975Q63.4967 7.97706 63.364 7.62219Q63.2313 7.26732 62.9659 6.92753L36.2327-19.7434L20.4289-35.2124L19.8328-33.612L35.6515-33.3224L131.151-33.3224Q131.956-33.3224 132.525-33.8563Q133.095-34.3901 133.095-35.2697Q133.095-36.1493 132.525-36.6832Q131.956-37.217 131.151-37.217L35.6515-37.217L19.8328-36.9274L20.4289-35.324L36.2327-50.796L62.9659-77.4669Q63.3087-77.8067 63.4027-78.1616Q63.4967-78.5165 63.4967-79.0292Q63.4967-79.751 62.9644-80.3592Q62.4321-80.9674 61.4811-80.9674Q60.4527-80.9674 59.368-79.7309L16.7877-36.6892Q16.084-36.0689 16.084-35.2697Z"/>
  </g>
  <g id="Ultralight-L" transform="matrix(1 0 0 1 485.122 1556)">
   <path d="M16.084-35.2697Q16.084-34.818 16.5097-34.4619L60.1063 9.60219Q60.4625 9.9692 60.925 9.9692Q61.5702 9.9692 61.8731 9.56953Q62.176 9.16986 62.176 8.8095Q62.176 8.43583 62.0989 8.23388Q62.0218 8.03193 61.8677 7.77556L32.3262-21.6202L18.566-35.4765L18.1228-34.2098L32.9406-34.1427L131.957-34.1427Q132.387-34.1427 132.741-34.4401Q133.095-34.7376 133.095-35.2697Q133.095-35.8018 132.741-36.0993Q132.387-36.3968 131.957-36.3968L32.9406-36.3968L18.1228-36.3296L18.566-35.0738L32.3262-48.9192L61.8677-78.315Q62.1131-78.5713 62.1446-78.7733Q62.176-78.9752 62.176-79.3489Q62.176-79.7093 61.8731-80.1089Q61.5702-80.5086 60.925-80.5086Q60.1886-80.5086 59.2846-79.4112L16.5097-36.0775Q16.084-35.7214 16.084-35.2697Z"/>
  </g>
  <g id="Black-M" transform="matrix(1 0 0 1 2871.22 1126)">
   <path d="M12.4609-35.5461Q12.4609-31.1934 15.2964-28.3687L46.468 2.73878Q49.5211 5.78638 53.1831 5.78638Q57.5868 5.78638 60.2213 3.12644Q62.8557 0.466506 62.8557-3.42975Q62.8557-5.74289 61.9123-7.45161Q60.9689-9.16033 59.596-10.4704L48.6614-21.2615L35.7224-33.2717L30.715-26.817L52.9625-25.7425L101.538-25.7425Q106.244-25.7425 109.076-28.4368Q111.907-31.1311 111.907-35.5461Q111.907-39.9612 109.076-42.6555Q106.244-45.3498 101.538-45.3498L52.9625-45.3498L30.715-44.2753L35.7224-37.815L48.6614-49.8307L59.596-60.679Q60.9686-62.0461 61.9122-63.7263Q62.8557-65.4065 62.8557-67.7196Q62.8557-71.6159 60.2213-74.2758Q57.5868-76.9357 53.1831-76.9357Q49.522-76.9357 46.4707-73.8906L15.2964-42.7236Q12.4609-39.8989 12.4609-35.5461Z"/>
  </g>
  <g id="Heavy-M" transform="matrix(1 0 0 1 2575.54 1126)">
   <path d="M12.4609-35.4788Q12.4609-31.7203 14.9854-29.2308L46.4493 2.1855Q49.1133 4.83327 52.3321 4.83327Q56.1228 4.83327 58.4222 2.51775Q60.7216 0.202238 60.7216-3.20482Q60.7216-5.18055 59.9306-6.67711Q59.1397-8.17368 57.9505-9.30552L47.0264-20.1774L32.5647-33.5126L28.5039-28.0132L49.2194-26.9557L100.889-26.9557Q104.942-26.9557 107.387-29.3069Q109.832-31.658 109.832-35.4788Q109.832-39.2995 107.387-41.6507Q104.942-44.0018 100.889-44.0018L49.2194-44.0018L28.5039-42.9443L32.5647-37.4287L47.0264-50.7801L57.9505-61.6956Q59.1422-62.8711 59.9319-64.3458Q60.7216-65.8206 60.7216-67.7963Q60.7216-71.2034 58.4222-73.5189Q56.1228-75.8344 52.3321-75.8344Q49.1059-75.8344 46.4273-73.1671L14.9854-41.7268Q12.4609-39.2372 12.4609-35.4788Z"/>
  </g>
  <g id="Bold-M" transform="matrix(1 0 0 1 2279.99 1126)">
   <path d="M12.4609-35.4034Q12.4609-32.3097 14.6375-30.1951L46.4283 1.56657Q48.6571 3.76708 51.38 3.76708Q54.4851 3.76708 56.4096 1.83685Q58.3342-0.0933843 58.3342-2.95321Q58.3342-4.55148 57.7138-5.81073Q57.0935-7.06997 56.1097-8.00248L45.1975-18.9647L29.0324-33.7821L26.0304-29.3513L45.0322-28.3129L100.163-28.3129Q103.484-28.3129 105.498-30.2801Q107.511-32.2474 107.511-35.4034Q107.511-38.5594 105.498-40.5266Q103.484-42.4939 100.163-42.4939L45.0322-42.4939L26.0304-41.4555L29.0324-36.9965L45.1975-51.8421L56.1097-62.8328Q57.099-63.7939 57.7166-65.0389Q58.3342-66.2838 58.3342-67.8821Q58.3342-70.7419 56.4096-72.6722Q54.4851-74.6024 51.38-74.6024Q48.6405-74.6024 46.3787-72.3577L14.6375-40.6117Q12.4609-38.4971 12.4609-35.4034Z"/>
  </g>
  <g id="Semibold-M" transform="matrix(1 0 0 1 1984.08 1126)">
   <path d="M12.4609-35.3514Q12.4609-32.716 14.3976-30.8599L46.4139 1.13989Q48.3426 3.03205 50.7237 3.03205Q53.356 3.03205 55.0222 1.36743Q56.6883-0.297184 56.6883-2.77974Q56.6883-4.11781 56.1856-5.21345Q55.6828-6.30909 54.8407-7.10417L43.9367-18.1286L26.5973-33.9678L24.3252-30.2738L42.1456-29.2485L99.6624-29.2485Q102.48-29.2485 104.195-30.9511Q105.91-32.6537 105.91-35.3514Q105.91-38.0492 104.195-39.7517Q102.48-41.4543 99.6624-41.4543L42.1456-41.4543L24.3252-40.4291L26.5973-36.6985L43.9367-52.5742L54.8407-63.6168Q55.6905-64.4301 56.1894-65.5166Q56.6883-66.6032 56.6883-67.9413Q56.6883-70.4238 55.0222-72.0884Q53.356-73.7531 50.7237-73.7531Q48.3197-73.7531 46.3452-71.7998L14.3976-39.8429Q12.4609-37.9869 12.4609-35.3514Z"/>
  </g>
  <g id="Medium-M" transform="matrix(1 0 0 1 1687.98 1126)">
   <path d="M12.4609-35.312Q12.4609-33.0241 14.2158-31.364L46.403 0.816365Q48.1041 2.47472 50.226 2.47472Q52.4999 2.47472 53.9702 1.0115Q55.4404-0.451714 55.4404-2.64821Q55.4404-3.78898 55.0268-4.76057Q54.6132-5.73215 53.8785-6.42303L42.9806-17.4947L24.7508-34.1087L23.0322-30.9732L39.9568-29.958L99.2829-29.958Q101.718-29.958 103.208-31.4599Q104.697-32.9618 104.697-35.312Q104.697-37.6623 103.208-39.1642Q101.718-40.6661 99.2829-40.6661L39.9568-40.6661L23.0322-39.6508L24.7508-36.4726L42.9806-53.1294L53.8785-64.2113Q54.6224-64.9125 55.0314-65.8789Q55.4404-66.8454 55.4404-67.9861Q55.4404-70.1826 53.9702-71.6458Q52.4999-73.1091 50.226-73.1091Q48.0764-73.1091 46.3198-71.3767L14.2158-39.26Q12.4609-37.6 12.4609-35.312Z"/>
  </g>
  <g id="Regular-M" transform="matrix(1 0 0 1 1392.06 1126)">
   <path d="M12.4609-35.2606Q12.4609-33.4259 13.9786-32.0216L46.3887 0.394371Q47.7931 1.74777 49.5769 1.74777Q51.3833 1.74777 52.598 0.54725Q53.8126-0.653274 53.8126-2.47666Q53.8126-3.36008 53.5153-4.16985Q53.218-4.97962 52.6234-5.5346L41.7337-16.6678L22.3424-34.2924L21.3457-31.8856L37.1019-30.8833L98.7879-30.8833Q100.725-30.8833 101.919-32.1235Q103.114-33.3636 103.114-35.2606Q103.114-37.1577 101.919-38.3978Q100.725-39.638 98.7879-39.638L37.1019-39.638L21.3457-38.6357L22.3424-36.1779L41.7337-53.8534L52.6234-64.9867Q53.2294-65.5417 53.521-66.3514Q53.8126-67.1612 53.8126-68.0446Q53.8126-69.868 52.598-71.0685Q51.3833-72.2691 49.5769-72.2691Q47.759-72.2691 46.2866-70.8249L13.9786-38.4997Q12.4609-37.0954 12.4609-35.2606Z"/>
  </g>
  <g id="Light-M" transform="matrix(1 0 0 1 1095.35 1126)">
   <path d="M12.4609-35.2606Q12.4609-33.8859 13.6106-32.8311L46.4439 0.118386Q47.4987 1.14061 48.8409 1.14061Q50.2426 1.14061 51.1536 0.216068Q52.0647-0.708471 52.0647-2.05348Q52.0647-2.75291 51.841-3.36029Q51.6173-3.96768 51.1699-4.41226L36.5635-19.1517L19.877-34.642L19.0827-32.6768L33.5141-31.9689L99.8551-31.9689Q101.295-31.9689 102.205-32.8962Q103.114-33.8236 103.114-35.2606Q103.114-36.6977 102.205-37.6251Q101.295-38.5524 99.8551-38.5524L33.5141-38.5524L19.0827-37.8445L19.877-35.8467L36.5635-51.3696L51.1699-66.109Q51.6471-66.5536 51.8559-67.161Q52.0647-67.7684 52.0647-68.4678Q52.0647-69.8128 51.1536-70.7374Q50.2426-71.6619 48.8409-71.6619Q47.4095-71.6619 46.1762-70.4017L13.6106-37.6902Q12.4609-36.6354 12.4609-35.2606Z"/>
  </g>
  <g id="Thin-M" transform="matrix(1 0 0 1 798.635 1126)">
   <path d="M12.4609-35.2606Q12.4609-34.4942 13.1239-33.9018L46.5169-0.246626Q47.1094 0.337579 47.8675 0.337579Q48.7339 0.337579 49.2434-0.221947Q49.753-0.781474 49.753-1.49379Q49.753-1.94988 49.6266-2.28959Q49.5003-2.6293 49.2475-2.92787L29.7256-22.4368L16.6162-35.1043L16.0896-33.7231L28.769-33.4046L101.266-33.4046Q102.049-33.4046 102.582-33.9183Q103.114-34.4319 103.114-35.2606Q103.114-36.0893 102.582-36.603Q102.049-37.1167 101.266-37.1167L28.769-37.1167L16.0896-36.7982L16.6162-35.4087L29.7256-48.0845L49.2475-67.5934Q49.5543-67.892 49.6537-68.2317Q49.753-68.5714 49.753-69.0275Q49.753-69.7398 49.2434-70.2993Q48.7339-70.8589 47.8675-70.8589Q46.9471-70.8589 46.0302-69.842L13.1239-36.6195Q12.4609-36.027 12.4609-35.2606Z"/>
  </g>
  <g id="Ultralight-M" transform="matrix(1 0 0 1 501.924 1126)">
   <path d="M12.4609-35.2606Q12.4609-34.8058 12.8746-34.4502L46.5543-0.433584Q46.9099-0.073728 47.369-0.073728Q47.9611-0.073728 48.265-0.446297Q48.5689-0.818865 48.5689-1.20712Q48.5689-1.53858 48.4924-1.74118Q48.4159-1.94379 48.2629-2.16758L26.2233-24.1194L14.946-35.3412L14.5565-34.2591L26.3385-34.14L101.989-34.14Q102.436-34.14 102.775-34.4417Q103.114-34.7435 103.114-35.2606Q103.114-35.7778 102.775-36.0795Q102.436-36.3813 101.989-36.3813L26.3385-36.3813L14.5565-36.2622L14.946-35.1844L26.2233-46.4018L48.2629-68.3537Q48.4824-68.5775 48.5257-68.7801Q48.5689-68.9827 48.5689-69.3142Q48.5689-69.7024 48.265-70.075Q47.9611-70.4476 47.369-70.4476Q46.7103-70.4476 45.9554-69.5554L12.8746-36.0711Q12.4609-35.7154 12.4609-35.2606Z"/>
  </g>
  <g id="Black-S" transform="matrix(1 0 0 1 2884.35 696)">
   <path d="M9.76562-35.498Q9.76562-31.9336 12.0605-29.6387L36.4258-5.32227Q38.916-2.83203 41.8945-2.83203Q45.5078-2.83203 47.6562-5.00488Q49.8047-7.17773 49.8047-10.3516Q49.8047-12.2559 49.0234-13.6475Q48.2422-15.0391 47.1191-16.1133L38.3301-24.7559L28.8086-33.6426L24.6094-28.3203L42.4316-27.4902L79.834-27.4902Q83.6914-27.4902 86.0107-29.6875Q88.3301-31.8848 88.3301-35.498Q88.3301-39.1113 86.0107-41.3086Q83.6914-43.5059 79.834-43.5059L42.4316-43.5059L24.6094-42.6758L28.8086-37.3535L38.3301-46.2402L47.1191-54.9316Q48.2422-56.0547 49.0234-57.4219Q49.8047-58.7891 49.8047-60.6934Q49.8047-63.8672 47.6562-66.04Q45.5078-68.2129 41.8945-68.2129Q38.916-68.2129 36.4258-65.7227L12.0605-41.3574Q9.76562-39.0625 9.76562-35.498Z"/>
  </g>
  <g id="Heavy-S" transform="matrix(1 0 0 1 2588.53 696)">
   <path d="M9.76562-35.4404Q9.76562-32.3254 11.8416-30.2725L36.4027-5.7602Q38.6049-3.5696 41.2607-3.5696Q44.4015-3.5696 46.3021-5.48315Q48.2028-7.3967 48.2028-10.2133Q48.2028-11.8525 47.5425-13.0885Q46.8823-14.3245 45.8975-15.2605L37.5925-23.5112L26.423-33.8039L23.0075-29.2423L39.6888-28.3891L79.1425-28.3891Q82.5044-28.3891 84.5298-30.3329Q86.5553-32.2766 86.5553-35.4404Q86.5553-38.6043 84.5298-40.548Q82.5044-42.4917 79.1425-42.4917L39.6888-42.4917L23.0075-41.6386L26.423-37.0654L37.5925-47.3696L45.8975-55.6577Q46.8823-56.6309 47.5425-57.8483Q48.2028-59.0656 48.2028-60.7049Q48.2028-63.5215 46.3021-65.435Q44.4015-67.3486 41.2607-67.3486Q38.6049-67.3486 36.4027-65.158L11.8416-40.6083Q9.76562-38.5554 9.76562-35.4404Z"/>
  </g>
  <g id="Bold-S" transform="matrix(1 0 0 1 2292.81 696)">
   <path d="M9.76562-35.376Q9.76562-32.7637 11.5967-30.9814L36.377-6.25Q38.2568-4.39453 40.5518-4.39453Q43.1641-4.39453 44.7876-6.01807Q46.4111-7.6416 46.4111-10.0586Q46.4111-11.4014 45.8862-12.4634Q45.3613-13.5254 44.5312-14.3066L36.7676-22.1191L23.7549-33.9844L21.2158-30.2734L36.6211-29.3945L78.3691-29.3945Q81.1768-29.3945 82.8735-31.0547Q84.5703-32.7148 84.5703-35.376Q84.5703-38.0371 82.8735-39.6973Q81.1768-41.3574 78.3691-41.3574L36.6211-41.3574L21.2158-40.4785L23.7549-36.7432L36.7676-48.6328L44.5312-56.4697Q45.3613-57.2754 45.8862-58.3252Q46.4111-59.375 46.4111-60.7178Q46.4111-63.1348 44.7876-64.7583Q43.1641-66.3818 40.5518-66.3818Q38.2568-66.3818 36.377-64.5264L11.5967-39.7705Q9.76562-37.9883 9.76562-35.376Z"/>
  </g>
  <g id="Semibold-S" transform="matrix(1 0 0 1 1996.78 696)">
   <path d="M9.76562-35.3315Q9.76562-33.0658 11.4278-31.4702L36.3592-6.5877Q38.0169-4.96328 40.063-4.96328Q42.3109-4.96328 43.7434-6.38687Q45.1759-7.81045 45.1759-9.95195Q45.1759-11.0903 44.7443-12.0324Q44.3127-12.9744 43.5893-13.649L36.1988-21.1594L21.9153-34.1088L19.9806-30.9844L34.5061-30.0877L77.8359-30.0877Q80.2614-30.0877 81.7316-31.5523Q83.2018-33.017 83.2018-35.3315Q83.2018-37.6461 81.7316-39.1107Q80.2614-40.5754 77.8359-40.5754L34.5061-40.5754L19.9806-39.6787L21.9153-36.521L36.1988-49.5037L43.5893-57.0296Q44.3127-57.7197 44.7443-58.654Q45.1759-59.5883 45.1759-60.7267Q45.1759-62.8682 43.7434-64.2917Q42.3109-65.7153 40.063-65.7153Q38.0169-65.7153 36.3592-64.0909L11.4278-39.1929Q9.76562-37.5973 9.76562-35.3315Z"/>
  </g>
  <g id="Medium-S" transform="matrix(1 0 0 1 1700.59 696)">
   <path d="M9.76562-35.2979Q9.76562-33.2949 11.2998-31.8408L36.3457-6.84375Q37.835-5.39453 39.6924-5.39453Q41.6641-5.39453 42.9517-6.6665Q44.2393-7.93848 44.2393-9.87109Q44.2393-10.8545 43.8784-11.7056Q43.5176-12.5566 42.875-13.1504L35.7676-20.4316L20.5205-34.2031L19.0439-31.5234L32.9023-30.6133L77.4316-30.6133Q79.5674-30.6133 80.8657-31.9297Q82.1641-33.2461 82.1641-35.2979Q82.1641-37.3496 80.8657-38.666Q79.5674-39.9824 77.4316-39.9824L32.9023-39.9824L19.0439-39.0723L20.5205-36.3525L35.7676-50.1641L42.875-57.4541Q43.5176-58.0566 43.8784-58.9033Q44.2393-59.75 44.2393-60.7334Q44.2393-62.666 42.9517-63.938Q41.6641-65.21 39.6924-65.21Q37.835-65.21 36.3457-63.7607L11.2998-38.7549Q9.76562-37.3008 9.76562-35.2979Z"/>
  </g>
  <g id="Regular-S" transform="matrix(1 0 0 1 1404.56 696)">
   <path d="M9.76562-35.2539Q9.76562-33.5938 11.1328-32.3242L36.3281-7.17773Q37.5977-5.95703 39.209-5.95703Q40.8203-5.95703 41.9189-7.03125Q43.0176-8.10547 43.0176-9.76562Q43.0176-10.5469 42.749-11.2793Q42.4805-12.0117 41.9434-12.5L35.2051-19.4824L18.7012-34.3262L17.8223-32.2266L30.8105-31.2988L76.9043-31.2988Q78.6621-31.2988 79.7363-32.4219Q80.8105-33.5449 80.8105-35.2539Q80.8105-36.9629 79.7363-38.0859Q78.6621-39.209 76.9043-39.209L30.8105-39.209L17.8223-38.2812L18.7012-36.1328L35.2051-51.0254L41.9434-58.0078Q42.4805-58.4961 42.749-59.2285Q43.0176-59.9609 43.0176-60.7422Q43.0176-62.4023 41.9189-63.4766Q40.8203-64.5508 39.209-64.5508Q37.5977-64.5508 36.3281-63.3301L11.1328-38.1836Q9.76562-36.9141 9.76562-35.2539Z"/>
  </g>
  <g id="Light-S" transform="matrix(1 0 0 1 1107.85 696)">
   <path d="M9.76562-35.2539Q9.76562-34.0007 10.8073-33.0404L36.377-7.42188Q37.3372-6.49414 38.5579-6.49414Q39.8112-6.49414 40.6413-7.32422Q41.4714-8.1543 41.4714-9.39128Q41.4714-10.0098 41.2679-10.5632Q41.0645-11.1165 40.6576-11.5072L30.6315-21.6797L16.5202-34.6354L15.8203-32.9264L27.6367-32.2591L77.8483-32.2591Q79.1667-32.2591 79.9886-33.1055Q80.8105-33.9518 80.8105-35.2539Q80.8105-36.556 79.9886-37.4023Q79.1667-38.2487 77.8483-38.2487L27.6367-38.2487L15.8203-37.5814L16.5202-35.8398L30.6315-48.8281L40.6576-59.0007Q41.0807-59.3913 41.276-59.9447Q41.4714-60.498 41.4714-61.1165Q41.4714-62.3535 40.6413-63.1836Q39.8112-64.0137 38.5579-64.0137Q37.2884-64.0137 36.2305-62.9557L10.8073-37.4674Q9.76562-36.5072 9.76562-35.2539Z"/>
  </g>
  <g id="Thin-S" transform="matrix(1 0 0 1 811.134 696)">
   <path d="M9.76562-35.2539Q9.76562-34.5388 10.3768-33.9875L36.4415-7.74477Q36.9928-7.20451 37.6969-7.20451Q38.4766-7.20451 38.9515-7.71169Q39.4263-8.21888 39.4263-8.89617Q39.4263-9.2994 39.309-9.61599Q39.1917-9.93259 38.957-10.1941L24.5826-24.5857L13.6356-35.0444L13.1726-33.8521L23.4391-33.5292L79.0968-33.5292Q79.834-33.5292 80.3223-34.0096Q80.8105-34.49 80.8105-35.2539Q80.8105-36.0178 80.3223-36.4982Q79.834-36.9786 79.0968-36.9786L23.4391-36.9786L13.1726-36.6557L13.6356-35.4524L24.5826-45.9221L38.957-60.3138Q39.2295-60.5752 39.3279-60.8918Q39.4263-61.2084 39.4263-61.6116Q39.4263-62.2889 38.9515-62.7961Q38.4766-63.3033 37.6969-63.3033Q36.8794-63.3033 36.1013-62.4606L10.3768-36.5203Q9.76562-35.969 9.76562-35.2539Z"/>
  </g>
  <g id="Ultralight-S" transform="matrix(1 0 0 1 514.423 696)">
   <path d="M9.76562-35.2539Q9.76562-34.8145 10.1562-34.4727L36.4746-7.91016Q36.8164-7.56836 37.2559-7.56836Q37.793-7.56836 38.0859-7.91016Q38.3789-8.25195 38.3789-8.64258Q38.3789-8.93555 38.3057-9.13086Q38.2324-9.32617 38.0859-9.52148L21.4844-26.0742L12.1582-35.2539L11.8164-34.3262L21.2891-34.1797L79.7363-34.1797Q80.1758-34.1797 80.4932-34.4727Q80.8105-34.7656 80.8105-35.2539Q80.8105-35.7422 80.4932-36.0352Q80.1758-36.3281 79.7363-36.3281L21.2891-36.3281L11.8164-36.1816L12.1582-35.2539L21.4844-44.4336L38.0859-60.9863Q38.2812-61.1816 38.3301-61.377Q38.3789-61.5723 38.3789-61.8652Q38.3789-62.2559 38.0859-62.5977Q37.793-62.9395 37.2559-62.9395Q36.6699-62.9395 36.0352-62.207L10.1562-36.0352Q9.76562-35.6934 9.76562-35.2539Z"/>
  </g>
 </g>
</svg>
